<?xml version="1.0" encoding="utf-8"?>
<!-- Generator: Adobe Illustrator 25.4.1, SVG Export Plug-In . SVG Version: 6.00 Build 0)  -->
<svg version="1.1" id="Laag_1" xmlns="http://www.w3.org/2000/svg" xmlns:xlink="http://www.w3.org/1999/xlink" x="0px" y="0px"
	 viewBox="0 0 272.1 141.7" style="enable-background:new 0 0 272.1 141.7;" xml:space="preserve">
<style type="text/css">
	.st0{fill:none;}
	.st1{fill:#FFFFFF;}
	.st2{fill:#7ECAD1;}
	.st3{fill:#3F2362;}
</style>
<rect class="st0" width="272.1" height="141.7"/>
<path class="st1" d="M133,88.7c-1.4-1.4-2.9-2.4-4.6-3.1c5.1-18.9,0.2-39.9-14.7-54.8c-22.1-22.1-58-22.1-80.2,0
	c-22.1,22.1-22.1,58,0,80.2c22.1,22.1,58,22.1,80.2,0c0.1-0.1,0.2-0.2,0.3-0.3c5.7,4.2,13.8,3.8,18.9-1.4
	C138.6,103.6,138.6,94.4,133,88.7z"/>
<circle class="st2" cx="122.7" cy="99" r="6.4"/>
<circle class="st1" cx="248.8" cy="99" r="6.4"/>
<g>
	<path class="st3" d="M32.7,78.4l4.3-1.9c0.3-0.1,0.6,0,0.7,0.3c0.8,1.8,2.2,3.9,5.5,3.9c3,0,4.3-1.7,4.3-3.1
		c0-4.2-12.1-1.9-13.6-9.7c-0.8-4.3,2.3-8.4,6.6-9.2c5.9-1.1,10.4,0.9,12.9,5c0.2,0.2,0.1,0.6-0.2,0.7L49,66.6
		c-0.2,0.1-0.5,0-0.7-0.2c-0.9-1.5-2.4-3-5.1-3c-2.1,0-3.4,1-3.4,2.3c0,4.1,14,1.7,14,11.4c0,6.2-5.4,8.9-10.4,8.9
		c-5.4,0-9.6-3.2-11-7C32.3,78.8,32.5,78.5,32.7,78.4z"/>
	<path class="st3" d="M85.1,72.2c0,8-4,13.9-11.3,13.9c-2.5,0-5-0.7-6.8-2.3c-0.3-0.3-0.9-0.1-0.9,0.4V85c0,0.3-0.2,0.5-0.5,0.5
		h-5.5c-0.3,0-0.5-0.2-0.5-0.5V48.4c0-0.3,0.2-0.5,0.5-0.5h5.5c0.3,0,0.5,0.2,0.5,0.5l0,12c0,0.4,0.5,0.7,0.9,0.4
		c1.7-1.5,4.3-2.4,6.8-2.4C80.4,58.3,85.1,63.5,85.1,72.2z M78.6,72.2c0-5-2.1-8-6.4-8c-4.7,0-6.7,3.6-6.7,8s2,7.8,6.7,7.8
		C76.6,80.1,78.6,77.2,78.6,72.2z"/>
	<path class="st2" d="M111.3,59.7V85c0,0.3-0.2,0.5-0.5,0.5h-4.7c-0.2,0-0.3-0.1-0.4-0.2l-9.4-15.4c-0.3-0.4-1-0.3-1,0.3V85
		c0,0.3-0.2,0.5-0.5,0.5h-4.3c-0.3,0-0.5-0.2-0.5-0.5V59.7c0-0.3,0.2-0.5,0.5-0.5h4.7c0.2,0,0.3,0.1,0.4,0.2l9.4,15.3
		c0.3,0.4,1,0.3,1-0.3V59.7c0-0.3,0.2-0.5,0.5-0.5h4.3C111,59.2,111.3,59.4,111.3,59.7z"/>
</g>
<g>
	<polygon class="st3" points="154,92.5 147.2,81 145.6,81 145.6,94.9 147,94.9 147,83.4 153.9,94.9 155.5,94.9 155.5,81 154,81 	"/>
	<path class="st3" d="M163,84.9c-2.9,0-4.4,2.4-4.4,5.1c0,2.8,1.5,5,4.5,5c1.5,0,2.7-0.4,3.8-1.7l-1-0.8c-0.9,1-1.8,1.2-2.8,1.2
		c-1.9,0-3.1-1.3-3.2-3.5h7.2c0-0.2,0.1-0.6,0.1-0.9C167.2,87.3,166,84.9,163,84.9z M165.9,89.2h-6c0.1-1.7,1.2-3.1,3-3.1
		c1.8,0,2.8,1.2,2.9,2.8C165.9,89.1,165.9,89.2,165.9,89.2z"/>
	<path class="st3" d="M176.8,86.4c-0.7-1-1.9-1.5-3.3-1.5c-2.7,0-4.4,2-4.4,5.1c0,2.9,1.5,5.1,4.4,5.1c1.4,0,2.5-0.6,3.3-1.5v1.3
		h1.4V81h-1.4V86.4z M173.7,93.9c-2.1,0-3.2-1.6-3.2-3.9c0-2.3,1.2-3.9,3.2-3.9c2,0,3.2,1.5,3.2,3.9
		C176.9,92.2,175.8,93.9,173.7,93.9z"/>
	<path class="st3" d="M185.2,84.9c-2.9,0-4.4,2.4-4.4,5.1c0,2.8,1.5,5,4.5,5c1.5,0,2.7-0.4,3.8-1.7l-1-0.8c-0.9,1-1.8,1.2-2.8,1.2
		c-1.9,0-3.1-1.3-3.2-3.5h7.2c0-0.2,0.1-0.6,0.1-0.9C189.5,87.3,188.2,84.9,185.2,84.9z M188.1,89.2h-6c0.1-1.7,1.2-3.1,3-3.1
		c1.8,0,2.8,1.2,2.9,2.8C188.1,89.1,188.1,89.2,188.1,89.2z"/>
	<path class="st3" d="M193.4,86.5v-1.5H192v9.9h1.4v-5.5c0-2.1,1.1-3.3,2.6-3.3c0.4,0,0.8,0.1,1.3,0.3l0.7-1.1
		c-0.5-0.3-1.1-0.4-1.7-0.4C195.3,84.9,194.1,85.2,193.4,86.5z"/>
	<path class="st3" d="M202.2,93.8c-0.7,0-0.9-0.4-0.9-1.1V81h-1.4v11.8c0,1.5,0.7,2.3,1.9,2.3c0.4,0,0.9-0.1,1.4-0.3l0-1.2
		C202.8,93.8,202.5,93.8,202.2,93.8z"/>
	<path class="st3" d="M208.9,84.9c-1.7,0-3,0.6-4,2l1,0.8c0.8-1.1,1.8-1.6,3-1.6c1.7,0,2.6,0.9,2.6,2.7v0.5h-2c-1.9,0-3,0.2-3.8,0.6
		c-0.7,0.4-1.1,1.2-1.1,2.2c0,1.9,1.3,3,3.4,3c1.6,0,2.8-0.6,3.5-1.7l0.1,1.5h1.3v-6.1C212.8,86.3,211.4,84.9,208.9,84.9z
		 M211.5,90.5c0,2.1-1.2,3.4-3.1,3.4c-1.5,0-2.4-0.7-2.4-1.8c0-0.6,0.2-1,0.5-1.3c0.5-0.4,1.3-0.5,3.1-0.5h1.9V90.5z"/>
	<path class="st3" d="M220.6,84.9c-1.4,0-2.6,0.6-3.3,1.6v-1.4h-1.4v9.9h1.4v-4.4c0-2.8,1.1-4.4,2.9-4.4c1.5,0,2.2,1,2.2,3.1v5.7
		h1.4v-6C223.8,86.3,222.7,84.9,220.6,84.9z"/>
	<path class="st3" d="M233.9,81v5.4c-0.7-1-1.9-1.5-3.3-1.5c-2.7,0-4.4,2-4.4,5.1c0,2.9,1.5,5.1,4.4,5.1c1.4,0,2.5-0.6,3.3-1.5v1.3
		h1.4V81H233.9z M230.9,93.9c-2.1,0-3.2-1.6-3.2-3.9c0-2.3,1.2-3.9,3.2-3.9c2,0,3.2,1.5,3.2,3.9C234,92.2,232.9,93.9,230.9,93.9z"/>
	<circle class="st3" cx="176.7" cy="44.1" r="1.3"/>
	<path class="st3" d="M152.5,53.8c0-3.6-5.2-2.7-5.2-4.2c0-0.5,0.5-0.8,1.3-0.8c1.1,0,1.6,0.6,2,1.3l1.9-1c-0.7-1.3-2-2.1-3.7-2.1
		c-1.9,0-3.6,1-3.6,2.9c0,3.7,5.1,2.6,5.1,4.2c0,0.5-0.5,1.2-1.6,1.2c-1.3,0-1.8-0.9-2.1-1.6l-1.9,0.9c0.5,1.5,2.1,2.8,4.1,2.8
		C150.6,57.1,152.5,56.1,152.5,53.8z"/>
	<path class="st3" d="M158.7,57.1c3,0,4.9-2.4,4.9-5.1c0-2.8-1.9-5.1-4.9-5.1c-3.1,0-4.9,2.3-4.9,5.1
		C153.7,54.8,155.6,57.1,158.7,57.1z M158.7,49c1.8,0,2.5,1.4,2.5,3c0,1.6-0.7,3-2.5,3c-1.8,0-2.5-1.4-2.5-3
		C156.1,50.4,156.8,49,158.7,49z"/>
	<path class="st3" d="M169.6,57.1c2,0,3.5-1.1,4.1-2.9l-2.2-0.8c-0.3,1-1,1.7-2,1.7c-1.7,0-2.3-1.4-2.3-3s0.6-3.1,2.3-3.1
		c1,0,1.7,0.7,2,1.7l2.3-0.9c-0.8-2-2.3-2.9-4.3-2.9c-3.2,0-4.8,2.6-4.8,5.2S166.4,57.1,169.6,57.1z"/>
	<rect x="175.5" y="47.1" class="st3" width="2.4" height="9.9"/>
	<path class="st3" d="M183.8,51c-1.1,0-2,0.1-2.6,0.4c-1,0.4-1.5,1.3-1.5,2.5c0,1.9,1.5,3.2,3.6,3.2c1.3,0,2.4-0.6,3-1.5l0.2,1.3
		h2.2v-6.2c0-2.4-1.6-3.8-4.2-3.8c-1.8,0-3.3,0.7-4.4,2.1l1.7,1.5c0.7-1,1.7-1.5,2.7-1.5c1.1,0,1.9,0.7,1.9,1.7V51H183.8z
		 M183.7,55.1c-1,0-1.5-0.4-1.5-1.1c0-0.4,0.1-0.6,0.4-0.8c0.3-0.2,0.8-0.3,1.6-0.3h2.1C186.3,54.1,185.1,55.1,183.7,55.1z"/>
	<path class="st3" d="M193.4,57.1c0.5,0,1-0.1,1.5-0.3v-1.9c-0.3,0.1-0.5,0.1-0.8,0.1c-0.4,0-0.7-0.2-0.7-0.6V43H191v11.6
		C191,56.3,192,57.1,193.4,57.1z"/>
	<path class="st3" d="M200.6,57.1c1.7,0,3-0.6,4-1.8l-1.7-1.5c-0.7,0.8-1.5,1.1-2.4,1.1c-1.6,0-2.4-0.9-2.5-2.2h6.8
		c0-0.3,0.1-0.6,0.1-0.9c0-2.7-1.5-5-4.5-5c-3.3,0-4.7,2.6-4.7,5.2C195.8,54.7,197.2,57.1,200.6,57.1z M200.4,48.9
		c1.3,0,2.2,0.8,2.3,2h-4.5C198.3,49.9,199,48.9,200.4,48.9z"/>
	<path class="st3" d="M145.6,62v13.9h2.4v-1c0.7,0.8,1.8,1.2,2.8,1.2c2.7,0,4.2-2.2,4.2-5.1c0-3.2-1.7-5.1-4.2-5.1
		c-1.1,0-2.2,0.5-2.8,1.2V62H145.6z M150.3,68c1.6,0,2.4,1.1,2.4,3c0,1.8-0.7,2.9-2.3,2.9c-1.7,0-2.5-1.3-2.5-2.9
		C147.8,69.4,148.5,68,150.3,68z"/>
	<path class="st3" d="M162.8,74.7l0.2,1.3h2.2v-6.2c0-2.4-1.6-3.8-4.2-3.8c-1.8,0-3.3,0.7-4.4,2.1l1.7,1.5c0.7-1,1.7-1.5,2.7-1.5
		c1.1,0,1.9,0.7,1.9,1.7V70h-2.5c-1.1,0-2,0.1-2.6,0.4c-1,0.4-1.5,1.3-1.5,2.5c0,1.9,1.5,3.2,3.6,3.2
		C161.1,76.1,162.2,75.6,162.8,74.7z M158.6,73c0-0.4,0.1-0.6,0.4-0.8c0.3-0.2,0.8-0.3,1.6-0.3h2.1c0,1.3-1.2,2.3-2.6,2.3
		C159.2,74.1,158.6,73.7,158.6,73z"/>
	<path class="st3" d="M170,72c0-1.8,0-4,2.2-4c1.8,0,1.8,1.5,1.8,2.2v5.8h2.4v-6.4c0-2.3-1.3-3.7-3.5-3.7c-1.2,0-2.3,0.4-3,1.3v-1.1
		h-2.4v9.9h2.4V72z"/>
	<polygon class="st3" points="181.3,73.1 182.9,71.4 185.7,75.9 188.6,75.9 184.5,69.9 188.2,66.1 185,66.1 181.3,70.1 181.3,62 
		178.9,62 178.9,75.9 181.3,75.9 	"/>
	<path class="st3" d="M197.6,74.4l-1.7-1.5c-0.7,0.8-1.5,1.1-2.4,1.1c-1.6,0-2.4-0.9-2.5-2.2h6.8c0-0.3,0.1-0.6,0.1-0.9
		c0-2.7-1.5-5-4.5-5c-3.3,0-4.7,2.6-4.7,5.2c0,2.6,1.4,5.1,4.8,5.1C195.2,76.1,196.5,75.6,197.6,74.4z M193.4,67.9
		c1.3,0,2.2,0.8,2.3,2h-4.5C191.3,68.9,191.9,67.9,193.4,67.9z"/>
	<path class="st3" d="M206.4,70.2v5.8h2.4v-6.4c0-2.3-1.3-3.7-3.5-3.7c-1.2,0-2.3,0.4-3,1.3v-1.1h-2.4v9.9h2.4V72c0-1.8,0-4,2.2-4
		C206.4,68,206.4,69.5,206.4,70.2z"/>
</g>
</svg>
