<?xml version="1.0" encoding="UTF-8" standalone="no"?>
<svg
   xmlns:dc="http://purl.org/dc/elements/1.1/"
   xmlns:cc="http://creativecommons.org/ns#"
   xmlns:rdf="http://www.w3.org/1999/02/22-rdf-syntax-ns#"
   xmlns:svg="http://www.w3.org/2000/svg"
   xmlns="http://www.w3.org/2000/svg"
   viewBox="0 0 232.03999 154"
   height="154"
   width="232.03999"
   xml:space="preserve"
   id="svg2"
   version="1.1"><metadata
     id="metadata8"><rdf:RDF><cc:Work
         rdf:about=""><dc:format>image/svg+xml</dc:format><dc:type
           rdf:resource="http://purl.org/dc/dcmitype/StillImage" /></cc:Work></rdf:RDF></metadata><defs
     id="defs6" /><g
     transform="matrix(1.3333333,0,0,-1.3333333,0,154)"
     id="g10"><g
       transform="scale(0.1)"
       id="g12"><path
         id="path14"
         style="fill:#74cb56;fill-opacity:1;fill-rule:nonzero;stroke:none"
         d="m 1506.78,675.578 c -25.01,0 -45.28,20.274 -45.28,45.277 0,25.004 20.27,45.274 45.28,45.274 25,0 45.27,-20.27 45.27,-45.274 0,-25.003 -20.27,-45.277 -45.27,-45.277 z m 0,-145.89 c -25.01,0 -45.28,20.273 -45.28,45.285 0,25 20.27,45.273 45.28,45.273 25,0 45.27,-20.273 45.27,-45.273 0,-25.012 -20.27,-45.285 -45.27,-45.285 z m 0,-145.887 c -25.01,0 -45.28,20.273 -45.28,45.281 0,25 20.27,45.273 45.28,45.273 25,0 45.27,-20.273 45.27,-45.273 0,-25.008 -20.27,-45.281 -45.27,-45.281 z m 233.08,217.031 c -11.57,294.113 -247.44,535.388 -541.25,553.128 -195.62,11.82 -371.684,-73.9 -484.481,-213.019 -11.992,-14.793 -33.07,-17.586 -48.914,-7.015 C 587.59,985.699 492.16,1012.86 389.984,1004 181.957,985.941 15.2578,815.918 1.02734,607.598 -16.0508,357.551 181.73,149.398 428.129,149.398 c 87.711,0 169.203,26.454 237.078,71.727 15.859,10.574 36.938,7.762 48.945,-7.043 C 820.023,83.5313 981.609,0 1162.79,0 c 326.69,0 590.03,271.262 577.07,600.832" /><path
         id="path16"
         style="fill:#ffffff;fill-opacity:1;fill-rule:nonzero;stroke:none"
         d="m 319.605,390.332 -103.039,375.055 -0.558,2.215 c 0,3.328 2.027,4.992 6.097,4.992 h 84.208 c 3.691,0 6.093,-1.856 7.199,-5.543 l 48.199,-201.66 c 0.363,-1.473 0.918,-2.215 1.66,-2.215 0.738,0 1.289,0.742 1.664,2.215 l 43.215,201.105 c 0.73,4.063 3.129,6.098 7.195,6.098 h 77.008 c 3.692,0 6.094,-1.856 7.203,-5.543 l 48.199,-201.66 c 0.36,-1.473 0.918,-2.215 1.665,-2.215 0.734,0 1.289,0.742 1.66,2.215 l 44.867,201.105 c 0.742,4.063 3.141,6.098 7.203,6.098 h 81.996 c 5.168,0 7.203,-2.414 6.094,-7.207 L 597.715,390.332 c -1.11,-3.699 -3.703,-5.535 -7.762,-5.535 h -79.219 c -4.066,0 -6.464,2.019 -7.203,6.094 l -48.195,213.836 c -0.367,1.476 -0.93,2.218 -1.66,2.218 -0.742,0 -1.301,-0.742 -1.664,-2.218 L 408.797,390.891 c -0.742,-4.075 -3.141,-6.094 -7.199,-6.094 h -74.231 c -4.074,0 -6.652,1.836 -7.762,5.535" /><path
         id="path18"
         style="fill:#243871;fill-opacity:1;fill-rule:nonzero;stroke:none"
         d="m 781.918,391.719 c -17.551,6.828 -31.125,16.25 -40.723,28.254 -9.605,12 -14.398,25.39 -14.398,40.164 v 4.992 c 0,1.836 0.633,3.406 1.937,4.707 1.289,1.289 2.856,1.934 4.711,1.934 h 48.746 c 1.844,0 3.411,-0.645 4.707,-1.934 1.293,-1.301 1.942,-2.871 1.942,-4.707 v -1.113 c 0,-9.239 5.074,-17.266 15.234,-24.102 10.156,-6.836 22.992,-10.246 38.5,-10.246 14.77,0 26.778,3.047 36.02,9.141 9.215,6.093 13.836,13.75 13.836,22.988 0,8.496 -3.782,14.863 -11.348,19.113 -7.578,4.246 -19.855,8.77 -36.848,13.574 l -21.046,6.649 c -18.84,5.539 -34.723,11.445 -47.641,17.726 -12.938,6.278 -23.824,14.864 -32.688,25.762 -8.867,10.887 -13.3,24.832 -13.3,41.824 0,25.852 10.156,46.442 30.472,61.774 20.305,15.32 47.09,22.992 80.328,22.992 22.528,0 42.286,-3.602 59.278,-10.801 16.98,-7.211 30.097,-17.176 39.336,-29.922 9.226,-12.738 13.847,-27.234 13.847,-43.484 0,-1.856 -0.652,-3.418 -1.941,-4.707 -1.289,-1.309 -2.863,-1.945 -4.707,-1.945 h -47.094 c -1.844,0 -3.418,0.636 -4.703,1.945 -1.301,1.289 -1.945,2.851 -1.945,4.707 0,9.598 -4.707,17.637 -14.121,24.094 -9.414,6.461 -22.254,9.699 -38.496,9.699 -14.411,0 -26.137,-2.688 -35.184,-8.031 -9.059,-5.364 -13.57,-12.844 -13.57,-22.442 0,-8.859 4.328,-15.605 13.015,-20.226 8.672,-4.618 23.176,-9.688 43.489,-15.235 l 12.191,-3.308 c 19.57,-5.918 36.008,-11.926 49.305,-18.02 13.293,-6.082 24.562,-14.59 33.789,-25.476 9.23,-10.899 13.847,-25.02 13.847,-42.383 0,-26.231 -10.34,-46.809 -31.015,-61.77 -20.692,-14.949 -48.203,-22.441 -82.551,-22.441 -23.27,0 -43.672,3.418 -61.211,10.254" /><path
         id="path20"
         style="fill:#243871;fill-opacity:1;fill-rule:nonzero;stroke:none"
         d="m 1012.93,386.738 c -1.3,1.289 -1.95,2.852 -1.95,4.707 v 374.496 c 0,1.844 0.65,3.414 1.95,4.707 1.29,1.297 2.85,1.946 4.7,1.946 h 50.98 c 1.84,0 3.4,-0.649 4.71,-1.946 1.29,-1.293 1.93,-2.863 1.93,-4.707 V 565.949 c 0,-1.105 0.36,-1.855 1.11,-2.219 0.74,-0.371 1.47,0 2.21,1.114 l 89.76,99.164 c 2.58,2.578 5.34,3.879 8.3,3.879 h 58.72 c 3.69,0 5.55,-1.301 5.55,-3.879 0,-1.106 -0.57,-2.59 -1.66,-4.434 l -70.37,-84.203 c -1.1,-1.113 -1.29,-2.41 -0.54,-3.875 l 83.1,-178.945 c 0.73,-1.485 1.1,-2.59 1.1,-3.321 0,-2.968 -2.02,-4.433 -6.09,-4.433 h -53.74 c -3.7,0 -6.29,1.66 -7.76,4.98 L 1124.56,530.5 c -0.37,0.73 -1.03,1.191 -1.94,1.387 -0.92,0.176 -1.58,-0.098 -1.94,-0.84 l -44.32,-50.969 c -0.75,-1.473 -1.11,-2.773 -1.11,-3.875 v -84.758 c 0,-1.855 -0.64,-3.418 -1.93,-4.707 -1.31,-1.308 -2.87,-1.941 -4.71,-1.941 h -50.98 c -1.85,0 -3.41,0.633 -4.7,1.941" /></g></g></svg>