<?xml version="1.0" encoding="UTF-8" standalone="no"?>
<svg
   xmlns:dc="http://purl.org/dc/elements/1.1/"
   xmlns:cc="http://creativecommons.org/ns#"
   xmlns:rdf="http://www.w3.org/1999/02/22-rdf-syntax-ns#"
   xmlns:svg="http://www.w3.org/2000/svg"
   xmlns="http://www.w3.org/2000/svg"
   viewBox="0 0 389.54666 120.09333"
   height="120.09333"
   width="389.54666"
   xml:space="preserve"
   id="svg2"
   version="1.1"><metadata
     id="metadata8"><rdf:RDF><cc:Work
         rdf:about=""><dc:format>image/svg+xml</dc:format><dc:type
           rdf:resource="http://purl.org/dc/dcmitype/StillImage" /></cc:Work></rdf:RDF></metadata><defs
     id="defs6" /><g
     transform="matrix(1.3333333,0,0,-1.3333333,0,120.09333)"
     id="g10"><g
       transform="scale(0.1)"
       id="g12"><path
         id="path14"
         style="fill:#253874;fill-opacity:1;fill-rule:nonzero;stroke:none"
         d="m 1538.56,585.668 -37.18,142.168 -0.2,0.852 c 0,1.257 0.76,1.882 2.3,1.882 h 26.05 c 1.39,0 2.3,-0.703 2.72,-2.097 l 19.95,-85.469 c 0.14,-0.566 0.35,-0.84 0.64,-0.84 0.27,0 0.48,0.274 0.62,0.84 l 19.33,85.262 c 0.42,1.535 1.33,2.304 2.72,2.304 h 25.41 c 1.55,0 2.52,-0.703 2.94,-2.097 l 21.01,-85.469 c 0.13,-0.418 0.34,-0.664 0.62,-0.734 0.29,-0.079 0.49,0.168 0.64,0.734 l 19.31,85.262 c 0.42,1.535 1.33,2.304 2.74,2.304 h 24.77 c 1.97,0 2.74,-0.906 2.32,-2.734 l -34.45,-142.168 c -0.42,-1.395 -1.39,-2.098 -2.93,-2.098 h -25 c -1.39,0 -2.31,0.703 -2.73,2.098 l -21.42,90.937 c -0.13,0.559 -0.35,0.84 -0.62,0.84 -0.28,0 -0.5,-0.281 -0.64,-0.84 l -19.95,-90.722 c -0.28,-1.543 -1.19,-2.313 -2.72,-2.313 h -23.31 c -1.54,0 -2.52,0.703 -2.94,2.098" /><path
         id="path16"
         style="fill:#253874;fill-opacity:1;fill-rule:nonzero;stroke:none"
         d="m 1732.81,608.773 c 4.2,3.215 6.3,7.344 6.3,12.383 v 7.571 c 0,0.691 -0.36,1.043 -1.05,1.043 h -15.13 c -6.29,0 -11.23,-1.188 -14.8,-3.563 -3.57,-2.383 -5.35,-5.742 -5.35,-10.09 0,-3.777 1.33,-6.746 3.98,-8.926 2.67,-2.168 6.23,-3.25 10.71,-3.25 6.02,0 11.14,1.61 15.34,4.832 z m 13.23,79.688 c 7.14,-3.145 12.7,-7.449 16.69,-12.91 3.99,-5.457 5.99,-11.551 5.99,-18.27 V 586.09 c 0,-0.703 -0.25,-1.289 -0.74,-1.777 -0.49,-0.5 -1.08,-0.743 -1.78,-0.743 h -24.57 c -0.71,0 -1.3,0.243 -1.79,0.743 -0.49,0.488 -0.73,1.074 -0.73,1.777 v 6.933 c 0,0.418 -0.14,0.692 -0.42,0.84 -0.29,0.137 -0.56,0 -0.84,-0.422 -5.88,-7.703 -15.34,-11.55 -28.35,-11.55 -10.92,0 -19.74,2.656 -26.46,7.976 -6.73,5.324 -10.09,13.164 -10.09,23.528 0,10.781 3.78,19.14 11.35,25.097 7.56,5.946 18.33,8.914 32.34,8.914 h 21.42 c 0.69,0 1.05,0.352 1.05,1.055 v 4.621 c 0,4.617 -1.4,8.223 -4.2,10.82 -2.81,2.586 -7.01,3.875 -12.6,3.875 -4.35,0 -7.95,-0.769 -10.82,-2.304 -2.87,-1.543 -4.73,-3.711 -5.57,-6.512 -0.42,-1.543 -1.33,-2.238 -2.72,-2.102 l -25.41,3.36 c -1.68,0.285 -2.45,0.91 -2.32,1.894 0.57,5.879 2.91,11.203 7.04,15.957 4.13,4.758 9.59,8.469 16.38,11.137 6.79,2.652 14.39,3.981 22.78,3.981 9.11,0 17.23,-1.571 24.37,-4.727" /><path
         id="path18"
         style="fill:#253874;fill-opacity:1;fill-rule:nonzero;stroke:none"
         d="m 1843.69,608.773 c 4.2,3.215 6.29,7.344 6.29,12.383 v 7.571 c 0,0.691 -0.35,1.043 -1.04,1.043 h -15.13 c -6.3,0 -11.23,-1.188 -14.8,-3.563 -3.57,-2.383 -5.35,-5.742 -5.35,-10.09 0,-3.777 1.32,-6.746 3.98,-8.926 2.67,-2.168 6.23,-3.25 10.71,-3.25 6.02,0 11.14,1.61 15.34,4.832 z m 13.23,79.688 c 7.14,-3.145 12.7,-7.449 16.69,-12.91 3.99,-5.457 5.98,-11.551 5.98,-18.27 V 586.09 c 0,-0.703 -0.24,-1.289 -0.73,-1.777 -0.49,-0.5 -1.08,-0.743 -1.79,-0.743 h -24.57 c -0.7,0 -1.29,0.243 -1.78,0.743 -0.49,0.488 -0.74,1.074 -0.74,1.777 v 6.933 c 0,0.418 -0.13,0.692 -0.42,0.84 -0.28,0.137 -0.55,0 -0.84,-0.422 -5.87,-7.703 -15.33,-11.55 -28.34,-11.55 -10.92,0 -19.74,2.656 -26.46,7.976 -6.73,5.324 -10.09,13.164 -10.09,23.528 0,10.781 3.78,19.14 11.35,25.097 7.56,5.946 18.33,8.914 32.33,8.914 h 21.43 c 0.69,0 1.04,0.352 1.04,1.055 v 4.621 c 0,4.617 -1.39,8.223 -4.19,10.82 -2.81,2.586 -7.01,3.875 -12.6,3.875 -4.35,0 -7.95,-0.769 -10.82,-2.304 -2.87,-1.543 -4.73,-3.711 -5.57,-6.512 -0.42,-1.543 -1.33,-2.238 -2.72,-2.102 l -25.41,3.36 c -1.68,0.285 -2.45,0.91 -2.32,1.894 0.57,5.879 2.91,11.203 7.04,15.957 4.12,4.758 9.59,8.469 16.38,11.137 6.79,2.652 14.38,3.981 22.78,3.981 9.1,0 17.23,-1.571 24.37,-4.727" /><path
         id="path20"
         style="fill:#253874;fill-opacity:1;fill-rule:nonzero;stroke:none"
         d="m 1966.12,690.043 c 1.11,-0.566 1.53,-1.609 1.26,-3.152 l -4.42,-23.934 c -0.13,-1.684 -1.12,-2.18 -2.94,-1.477 -2.1,0.704 -4.55,1.055 -7.35,1.055 -1.11,0 -2.66,-0.148 -4.62,-0.422 -5.04,-0.418 -9.31,-2.273 -12.8,-5.566 -3.51,-3.289 -5.26,-7.664 -5.26,-13.125 V 586.09 c 0,-0.703 -0.24,-1.289 -0.73,-1.777 -0.5,-0.5 -1.08,-0.743 -1.79,-0.743 h -24.57 c -0.7,0 -1.29,0.243 -1.78,0.743 -0.49,0.488 -0.73,1.074 -0.73,1.777 v 102.898 c 0,0.703 0.24,1.301 0.73,1.789 0.49,0.489 1.08,0.731 1.78,0.731 h 24.57 c 0.71,0 1.29,-0.242 1.79,-0.731 0.49,-0.488 0.73,-1.086 0.73,-1.789 v -7.976 c 0,-0.422 0.14,-0.703 0.42,-0.84 0.29,-0.137 0.49,-0.07 0.64,0.215 5.73,8.398 13.44,12.597 23.09,12.597 5.04,0 9.04,-0.984 11.98,-2.941" /><path
         id="path22"
         style="fill:#253874;fill-opacity:1;fill-rule:nonzero;stroke:none"
         d="m 2049.69,637.332 c 0,9.656 -1.68,17.078 -5.04,22.262 -3.36,5.461 -8.33,8.183 -14.91,8.183 -6.16,0 -10.85,-2.722 -14.06,-8.183 -3.09,-5.321 -4.62,-12.676 -4.62,-22.051 0,-9.383 1.4,-16.453 4.2,-21.207 3.36,-6.027 8.25,-9.035 14.7,-9.035 6.85,0 11.97,3.008 15.33,9.035 2.94,5.32 4.4,12.312 4.4,20.996 z m 30.67,0.633 c 0,-9.66 -1.2,-18.133 -3.58,-25.41 -3.22,-9.524 -8.37,-17.012 -15.43,-22.469 -7.07,-5.461 -15.44,-8.195 -25.1,-8.195 -10.22,0 -18.27,3.847 -24.15,11.55 -0.28,0.274 -0.55,0.383 -0.84,0.313 -0.28,-0.066 -0.42,-0.313 -0.42,-0.731 v -6.933 c 0,-0.703 -0.24,-1.289 -0.73,-1.777 -0.5,-0.5 -1.08,-0.743 -1.79,-0.743 h -24.57 c -0.7,0 -1.29,0.243 -1.78,0.743 -0.49,0.488 -0.74,1.074 -0.74,1.777 v 141.961 c 0,0.703 0.25,1.289 0.74,1.789 0.49,0.488 1.08,0.73 1.78,0.73 h 24.57 c 0.71,0 1.29,-0.242 1.79,-0.73 0.49,-0.5 0.73,-1.086 0.73,-1.789 v -44.942 c 0,-0.418 0.14,-0.703 0.42,-0.839 0.29,-0.137 0.56,0 0.84,0.421 5.46,7 13.24,10.497 23.31,10.497 10.22,0 18.8,-2.618 25.73,-7.872 6.93,-5.253 12,-12.351 15.22,-21.316 2.66,-7.277 4,-15.957 4,-26.035" /><path
         id="path24"
         style="fill:#253874;fill-opacity:1;fill-rule:nonzero;stroke:none"
         d="m 2158.48,611.5 c 3.21,2.801 5.53,6.648 6.92,11.551 1.13,4.484 1.68,9.375 1.68,14.699 0,5.879 -0.55,10.848 -1.68,14.91 -1.54,4.758 -3.91,8.469 -7.13,11.133 -3.23,2.656 -7.14,3.984 -11.76,3.984 -4.77,0 -8.72,-1.328 -11.87,-3.984 -3.15,-2.664 -5.43,-6.375 -6.82,-11.133 -1.13,-3.359 -1.68,-8.328 -1.68,-14.91 0,-6.301 0.49,-11.203 1.47,-14.699 1.4,-4.903 3.74,-8.75 7.03,-11.551 3.29,-2.805 7.32,-4.199 12.07,-4.199 4.62,0 8.55,1.394 11.77,4.199 z m -42,-20.371 c -8.4,6.164 -14.14,14.559 -17.23,25.207 -1.95,6.582 -2.94,13.719 -2.94,21.414 0,8.262 0.99,15.684 2.94,22.266 3.22,10.351 9.04,18.476 17.43,24.355 8.4,5.879 18.49,8.817 30.25,8.817 11.47,0 21.28,-2.899 29.39,-8.711 8.13,-5.809 13.87,-13.895 17.23,-24.258 2.24,-7 3.36,-14.344 3.36,-22.051 0,-7.559 -0.99,-14.625 -2.94,-21.207 -3.09,-10.918 -8.79,-19.496 -17.12,-25.727 -8.33,-6.23 -18.37,-9.343 -30.14,-9.343 -11.75,0 -21.83,3.074 -30.23,9.238" /><path
         id="path26"
         style="fill:#253874;fill-opacity:1;fill-rule:nonzero;stroke:none"
         d="m 2281.74,690.043 c 1.13,-0.566 1.55,-1.609 1.26,-3.152 l -4.4,-23.934 c -0.15,-1.684 -1.13,-2.18 -2.94,-1.477 -2.1,0.704 -4.55,1.055 -7.35,1.055 -1.13,0 -2.67,-0.148 -4.62,-0.422 -5.04,-0.418 -9.32,-2.273 -12.82,-5.566 -3.49,-3.289 -5.24,-7.664 -5.24,-13.125 V 586.09 c 0,-0.703 -0.25,-1.289 -0.74,-1.777 -0.49,-0.5 -1.09,-0.743 -1.79,-0.743 h -24.56 c -0.7,0 -1.3,0.243 -1.79,0.743 -0.5,0.488 -0.74,1.074 -0.74,1.777 v 102.898 c 0,0.703 0.24,1.301 0.74,1.789 0.49,0.489 1.09,0.731 1.79,0.731 h 24.56 c 0.7,0 1.3,-0.242 1.79,-0.731 0.49,-0.488 0.74,-1.086 0.74,-1.789 v -7.976 c 0,-0.422 0.14,-0.703 0.42,-0.84 0.27,-0.137 0.49,-0.07 0.62,0.215 5.75,8.398 13.44,12.597 23.1,12.597 5.05,0 9.03,-0.984 11.97,-2.941" /><path
         id="path28"
         style="fill:#253874;fill-opacity:1;fill-rule:nonzero;stroke:none"
         d="m 2357.55,638.383 c 0,4.336 -0.13,7.699 -0.42,10.078 -0.28,2.383 -0.77,4.621 -1.46,6.719 -1.26,3.781 -3.36,6.828 -6.3,9.14 -2.94,2.305 -6.58,3.457 -10.93,3.457 -4.2,0 -7.76,-1.152 -10.7,-3.457 -2.94,-2.312 -5.12,-5.359 -6.52,-9.14 -1.96,-4.2 -2.93,-9.871 -2.93,-17.012 0,-7.84 0.84,-13.438 2.52,-16.793 1.25,-3.781 3.46,-6.828 6.61,-9.133 3.15,-2.316 6.89,-3.469 11.24,-3.469 4.47,0 8.19,1.153 11.13,3.469 2.94,2.305 4.96,5.281 6.08,8.914 1.13,4.211 1.68,9.942 1.68,17.227 z m 0.74,52.394 c 0.49,0.489 1.08,0.731 1.78,0.731 h 24.57 c 0.71,0 1.3,-0.242 1.79,-0.731 0.49,-0.488 0.73,-1.086 0.73,-1.789 v -95.761 c 0,-18.329 -5.28,-31.426 -15.85,-39.266 -10.57,-7.844 -24.19,-11.758 -40.85,-11.758 -4.9,0 -10.36,0.352 -16.37,1.047 -1.41,0.145 -2.1,1.051 -2.1,2.73 l 0.84,21.633 c 0,1.817 0.97,2.586 2.94,2.305 5.04,-0.84 9.65,-1.262 13.85,-1.262 8.96,0 15.86,1.965 20.69,5.891 4.83,3.914 7.24,10.215 7.24,18.894 0,0.422 -0.13,0.664 -0.42,0.735 -0.28,0.066 -0.55,-0.031 -0.84,-0.313 -5.32,-5.742 -13.08,-8.613 -23.31,-8.613 -9.1,0 -17.46,2.207 -25.09,6.621 -7.63,4.402 -13.05,11.512 -16.27,21.309 -2.1,6.445 -3.16,14.777 -3.16,24.988 0,10.918 1.26,19.816 3.78,26.672 2.95,8.543 7.91,15.398 14.91,20.586 7,5.176 15.13,7.762 24.37,7.762 10.77,0 19.03,-3.223 24.77,-9.657 0.29,-0.281 0.56,-0.383 0.84,-0.312 0.29,0.066 0.42,0.312 0.42,0.73 v 5.039 c 0,0.703 0.25,1.301 0.74,1.789" /><path
         id="path30"
         style="fill:#253874;fill-opacity:1;fill-rule:nonzero;stroke:none"
         d="m 2471.68,690.992 c 0.49,-0.5 0.75,-1.094 0.75,-1.785 v -19.953 c 0,-0.703 -0.26,-1.297 -0.75,-1.789 -0.48,-0.488 -1.08,-0.731 -1.77,-0.731 h -20.37 c -0.71,0 -1.06,-0.351 -1.06,-1.054 v -79.59 c 0,-0.703 -0.24,-1.289 -0.73,-1.777 -0.49,-0.5 -1.09,-0.743 -1.79,-0.743 h -24.57 c -0.7,0 -1.3,0.243 -1.79,0.743 -0.48,0.488 -0.73,1.074 -0.73,1.777 v 79.59 c 0,0.703 -0.35,1.054 -1.04,1.054 h -12.4 c -0.7,0 -1.29,0.243 -1.78,0.731 -0.49,0.492 -0.74,1.086 -0.74,1.789 v 19.953 c 0,0.691 0.25,1.285 0.74,1.785 0.49,0.488 1.08,0.731 1.78,0.731 h 12.4 c 0.69,0 1.04,0.343 1.04,1.047 v 4.617 c 0,8.683 1.33,15.441 4,20.273 2.65,4.824 6.96,8.254 12.91,10.285 5.94,2.032 14.18,2.91 24.67,2.625 h 7.98 c 0.71,0 1.29,-0.242 1.79,-0.73 0.49,-0.5 0.73,-1.086 0.73,-1.789 v -17.008 c 0,-0.707 -0.24,-1.301 -0.73,-1.789 -0.5,-0.488 -1.08,-0.734 -1.79,-0.734 h -6.93 c -4.9,-0.137 -8.29,-1.153 -10.18,-3.047 -1.89,-1.883 -2.84,-5.348 -2.84,-10.387 v -2.316 c 0,-0.704 0.35,-1.047 1.06,-1.047 h 20.37 c 0.69,0 1.29,-0.243 1.77,-0.731" /><path
         id="path32"
         style="fill:#253874;fill-opacity:1;fill-rule:nonzero;stroke:none"
         d="m 2542.56,611.5 c 3.23,2.801 5.53,6.648 6.94,11.551 1.11,4.484 1.68,9.375 1.68,14.699 0,5.879 -0.57,10.848 -1.68,14.91 -1.55,4.758 -3.93,8.469 -7.14,11.133 -3.22,2.656 -7.15,3.984 -11.77,3.984 -4.76,0 -8.71,-1.328 -11.87,-3.984 -3.14,-2.664 -5.41,-6.375 -6.81,-11.133 -1.12,-3.359 -1.69,-8.328 -1.69,-14.91 0,-6.301 0.5,-11.203 1.47,-14.699 1.4,-4.903 3.74,-8.75 7.03,-11.551 3.3,-2.805 7.32,-4.199 12.09,-4.199 4.61,0 8.53,1.394 11.75,4.199 z m -42,-20.371 c -8.4,6.164 -14.14,14.559 -17.22,25.207 -1.96,6.582 -2.94,13.719 -2.94,21.414 0,8.262 0.98,15.684 2.94,22.266 3.23,10.351 9.04,18.476 17.44,24.355 8.39,5.879 18.47,8.817 30.23,8.817 11.48,0 21.28,-2.899 29.4,-8.711 8.12,-5.809 13.86,-13.895 17.22,-24.258 2.24,-7 3.36,-14.344 3.36,-22.051 0,-7.559 -0.98,-14.625 -2.94,-21.207 -3.08,-10.918 -8.79,-19.496 -17.11,-25.727 -8.33,-6.23 -18.38,-9.343 -30.13,-9.343 -11.76,0 -21.85,3.074 -30.25,9.238" /><path
         id="path34"
         style="fill:#253874;fill-opacity:1;fill-rule:nonzero;stroke:none"
         d="m 2683.47,682.906 c 6.86,-6.863 10.29,-16.172 10.29,-27.929 V 586.09 c 0,-0.703 -0.24,-1.289 -0.74,-1.777 -0.49,-0.5 -1.08,-0.743 -1.78,-0.743 h -24.57 c -0.7,0 -1.29,0.243 -1.78,0.743 -0.49,0.488 -0.74,1.074 -0.74,1.777 v 62.793 c 0,5.594 -1.58,10.144 -4.72,13.652 -3.16,3.496 -7.32,5.242 -12.5,5.242 -5.18,0 -9.35,-1.746 -12.49,-5.242 -3.16,-3.508 -4.73,-8.058 -4.73,-13.652 V 586.09 c 0,-0.703 -0.24,-1.289 -0.73,-1.777 -0.5,-0.5 -1.09,-0.743 -1.79,-0.743 h -24.57 c -0.7,0 -1.3,0.243 -1.79,0.743 -0.48,0.488 -0.73,1.074 -0.73,1.777 v 102.898 c 0,0.703 0.25,1.301 0.73,1.789 0.49,0.489 1.09,0.731 1.79,0.731 h 24.57 c 0.7,0 1.29,-0.242 1.79,-0.731 0.49,-0.488 0.73,-1.086 0.73,-1.789 v -7.343 c 0,-0.418 0.14,-0.704 0.42,-0.84 0.28,-0.145 0.49,-0.078 0.64,0.207 5.73,8.113 14.27,12.176 25.61,12.176 11.2,0 20.23,-3.426 27.09,-10.282" /><path
         id="path36"
         style="fill:#253874;fill-opacity:1;fill-rule:nonzero;stroke:none"
         d="m 2781.13,637.543 c 0,9.375 -1.55,16.73 -4.62,22.051 -3.22,5.461 -7.91,8.183 -14.07,8.183 -6.59,0 -11.56,-2.722 -14.92,-8.183 -3.49,-5.457 -5.25,-12.879 -5.25,-22.262 0,-8.402 1.47,-15.402 4.41,-20.996 3.5,-6.027 8.69,-9.035 15.54,-9.035 6.3,0 11.2,3.008 14.71,9.035 2.79,5.172 4.2,12.246 4.2,21.207 z m 0.93,92.297 c 0.5,0.488 1.09,0.73 1.79,0.73 h 24.57 c 0.71,0 1.3,-0.242 1.79,-0.73 0.49,-0.5 0.73,-1.086 0.73,-1.789 V 586.09 c 0,-0.703 -0.24,-1.289 -0.73,-1.777 -0.49,-0.5 -1.08,-0.743 -1.79,-0.743 h -24.57 c -0.7,0 -1.29,0.243 -1.79,0.743 -0.48,0.488 -0.73,1.074 -0.73,1.777 v 6.933 c 0,0.418 -0.13,0.665 -0.42,0.731 -0.28,0.07 -0.55,-0.039 -0.84,-0.313 -5.88,-7.703 -13.92,-11.55 -24.15,-11.55 -9.79,0 -18.23,2.734 -25.3,8.195 -7.07,5.457 -12.15,12.945 -15.23,22.469 -2.38,7.277 -3.57,15.75 -3.57,25.41 0,9.941 1.26,18.613 3.78,26.035 3.22,8.965 8.3,16.063 15.23,21.316 6.93,5.254 15.5,7.872 25.73,7.872 10.08,0 17.92,-3.497 23.51,-10.497 0.29,-0.421 0.56,-0.558 0.84,-0.421 0.29,0.136 0.42,0.421 0.42,0.839 v 44.942 c 0,0.703 0.25,1.289 0.73,1.789" /><path
         id="path38"
         style="fill:#253874;fill-opacity:1;fill-rule:nonzero;stroke:none"
         d="m 2851.68,586.09 c -7,2.656 -12.43,6.367 -16.28,11.133 -3.84,4.754 -5.77,10.144 -5.77,16.172 v 2.097 c 0,0.696 0.25,1.289 0.74,1.789 0.48,0.489 1.08,0.731 1.78,0.731 h 23.31 c 0.7,0 1.29,-0.242 1.79,-0.731 0.49,-0.5 0.73,-1.093 0.73,-1.789 v -0.215 c 0,-3.074 1.71,-5.703 5.15,-7.871 3.43,-2.168 7.73,-3.25 12.91,-3.25 4.76,0 8.61,0.938 11.55,2.832 2.94,1.887 4.42,4.227 4.42,7.032 0,2.519 -1.26,4.414 -3.78,5.671 -2.53,1.262 -6.66,2.59 -12.4,3.997 -6.58,1.679 -11.75,3.281 -15.54,4.824 -8.96,3.074 -16.1,6.855 -21.42,11.336 -5.32,4.484 -7.98,10.929 -7.98,19.328 0,10.351 4.03,18.582 12.07,24.668 8.06,6.094 18.73,9.14 32.03,9.14 8.96,0 16.8,-1.437 23.52,-4.308 6.72,-2.871 11.93,-6.895 15.64,-12.071 3.72,-5.183 5.57,-11.062 5.57,-17.644 0,-0.703 -0.24,-1.301 -0.73,-1.789 -0.5,-0.488 -1.09,-0.731 -1.79,-0.731 h -22.47 c -0.7,0 -1.3,0.243 -1.79,0.731 -0.48,0.488 -0.73,1.086 -0.73,1.789 0,3.074 -1.57,5.672 -4.73,7.773 -3.14,2.102 -7.31,3.145 -12.49,3.145 -4.61,0 -8.39,-0.84 -11.33,-2.52 -2.95,-1.679 -4.42,-3.984 -4.42,-6.925 0,-2.801 1.44,-4.903 4.31,-6.297 2.86,-1.407 7.67,-2.871 14.38,-4.414 1.54,-0.422 3.29,-0.879 5.25,-1.368 1.96,-0.488 4.06,-1.085 6.31,-1.789 9.93,-2.937 17.77,-6.718 23.51,-11.336 5.74,-4.621 8.62,-11.339 8.62,-20.156 0,-10.363 -4.11,-18.449 -12.29,-24.258 -8.19,-5.812 -19.22,-8.711 -33.08,-8.711 -9.38,0 -17.57,1.329 -24.57,3.985" /><path
         id="path40"
         style="fill:#253874;fill-opacity:1;fill-rule:nonzero;stroke:none"
         d="m 1526.9,396.305 c -6.09,2.519 -10.78,5.879 -14.07,10.078 -3.29,4.199 -4.94,8.887 -4.94,14.074 v 2.516 c 0,1.398 0.71,2.101 2.1,2.101 h 10.08 c 1.4,0 2.1,-0.703 2.1,-2.101 v -1.68 c 0,-4.617 2.42,-8.652 7.25,-12.078 4.83,-3.43 10.89,-5.149 18.16,-5.149 7.28,0 13.17,1.653 17.65,4.942 4.47,3.285 6.72,7.453 6.72,12.492 0,3.496 -1.16,6.367 -3.47,8.613 -2.31,2.235 -5.04,3.992 -8.19,5.254 -3.15,1.262 -8.02,2.86 -14.59,4.824 -7.84,2.235 -14.29,4.481 -19.33,6.719 -5.04,2.235 -9.28,5.36 -12.7,9.344 -3.43,3.996 -5.15,9.062 -5.15,15.226 0,8.965 3.51,16.106 10.51,21.426 6.99,5.313 16.24,7.977 27.71,7.977 7.7,0 14.52,-1.258 20.48,-3.778 5.95,-2.519 10.53,-5.988 13.75,-10.398 3.22,-4.406 4.84,-9.348 4.84,-14.809 v -0.625 c 0,-1.406 -0.71,-2.097 -2.1,-2.097 h -9.88 c -1.39,0 -2.1,0.691 -2.1,2.097 v 0.625 c 0,4.758 -2.27,8.75 -6.82,11.977 -4.55,3.219 -10.68,4.832 -18.37,4.832 -7.14,0 -12.88,-1.445 -17.23,-4.309 -4.34,-2.871 -6.5,-6.824 -6.5,-11.863 0,-4.765 2.1,-8.398 6.3,-10.918 4.2,-2.531 10.71,-5.051 19.53,-7.57 8.11,-2.379 14.69,-4.617 19.73,-6.715 5.04,-2.102 9.38,-5.148 13.02,-9.133 3.64,-3.992 5.46,-9.211 5.46,-15.644 0,-9.102 -3.56,-16.387 -10.7,-21.844 -7.14,-5.461 -16.59,-8.188 -28.35,-8.188 -7.84,0 -14.81,1.262 -20.9,3.782" /><path
         id="path42"
         style="fill:#253874;fill-opacity:1;fill-rule:nonzero;stroke:none"
         d="m 1666.23,410.895 c 6.02,4.128 9.03,9.695 9.03,16.699 v 16.375 c 0,0.558 -0.29,0.84 -0.84,0.84 h -22.05 c -9.24,0 -16.66,-1.883 -22.26,-5.664 -5.6,-3.778 -8.4,-9.032 -8.4,-15.75 0,-6.165 2.13,-10.821 6.41,-13.965 4.27,-3.157 9.83,-4.727 16.69,-4.727 8.26,0 15.4,2.059 21.42,6.192 z m 13.65,80.957 c 6.86,-6.434 10.29,-14.981 10.29,-25.618 v -70.566 c 0,-1.395 -0.7,-2.098 -2.1,-2.098 h -10.71 c -1.4,0 -2.1,0.703 -2.1,2.098 v 8.613 c 0,0.285 -0.11,0.489 -0.31,0.625 -0.22,0.149 -0.46,0.078 -0.74,-0.203 -3.5,-4.199 -8.05,-7.383 -13.65,-9.551 -5.6,-2.179 -11.84,-3.261 -18.69,-3.261 -9.94,0 -18.27,2.519 -24.99,7.558 -6.72,5.039 -10.08,12.742 -10.08,23.106 0,10.496 3.81,18.789 11.45,24.883 7.62,6.093 18.23,9.128 31.81,9.128 h 24.36 c 0.55,0 0.84,0.286 0.84,0.84 v 7.989 c 0,7.14 -1.99,12.773 -5.99,16.906 -3.98,4.121 -10.18,6.191 -18.58,6.191 -6.72,0 -12.18,-1.301 -16.38,-3.887 -4.2,-2.589 -6.8,-6.191 -7.77,-10.812 -0.42,-1.406 -1.26,-2.031 -2.52,-1.895 l -11.34,1.477 c -1.54,0.273 -2.17,0.84 -1.88,1.68 1.11,7.84 5.31,14.207 12.59,19.113 7.28,4.891 16.38,7.34 27.3,7.34 12.61,0 22.33,-3.223 29.19,-9.656" /><path
         id="path44"
         style="fill:#253874;fill-opacity:1;fill-rule:nonzero;stroke:none"
         d="m 1792.12,491.43 c 6.65,-6.582 9.98,-15.399 9.98,-26.453 v -69.309 c 0,-1.395 -0.7,-2.098 -2.1,-2.098 h -10.71 c -1.4,0 -2.1,0.703 -2.1,2.098 v 66.367 c 0,7.695 -2.34,13.996 -7.04,18.899 -4.69,4.902 -10.74,7.351 -18.16,7.351 -7.7,0 -13.93,-2.383 -18.69,-7.148 -4.76,-4.754 -7.14,-10.985 -7.14,-18.68 v -66.789 c 0,-1.395 -0.71,-2.098 -2.1,-2.098 h -10.71 c -1.4,0 -2.1,0.703 -2.1,2.098 V 497.73 c 0,1.399 0.7,2.102 2.1,2.102 h 10.71 c 1.39,0 2.1,-0.703 2.1,-2.102 v -9.023 c 0,-0.285 0.1,-0.496 0.32,-0.637 0.2,-0.136 0.38,-0.066 0.52,0.215 6.16,8.676 15.61,13.02 28.35,13.02 11.2,0 20.12,-3.293 26.77,-9.875" /><path
         id="path46"
         style="fill:#253874;fill-opacity:1;fill-rule:nonzero;stroke:none"
         d="m 1855.12,483.141 c -4.55,-3.575 -7.53,-8.371 -8.92,-14.387 -0.84,-2.938 -1.4,-7.703 -1.68,-14.285 0,-0.559 0.28,-0.84 0.84,-0.84 h 54.39 c 0.56,0 0.84,0.281 0.84,0.84 -0.28,6.308 -0.7,10.781 -1.26,13.449 -1.54,6.297 -4.66,11.297 -9.35,15.008 -4.69,3.711 -10.6,5.566 -17.74,5.566 -6.86,0 -12.57,-1.785 -17.12,-5.351 z m 60.17,-33.293 v -6.719 c 0,-1.395 -0.71,-2.098 -2.1,-2.098 h -67.83 c -0.56,0 -0.84,-0.281 -0.84,-0.84 0.28,-7.695 0.7,-12.668 1.26,-14.914 1.54,-6.297 4.83,-11.269 9.87,-14.898 5.04,-3.645 11.47,-5.473 19.32,-5.473 5.87,0 11.06,1.34 15.54,3.996 4.47,2.657 7.98,6.434 10.5,11.336 0.84,1.262 1.82,1.543 2.94,0.844 l 8.19,-4.828 c 1.12,-0.703 1.4,-1.68 0.84,-2.938 -3.5,-6.73 -8.76,-12.011 -15.75,-15.859 -7,-3.848 -15.05,-5.773 -24.15,-5.773 -9.94,0.136 -18.27,2.523 -24.99,7.14 -6.72,4.617 -11.55,11.055 -14.49,19.317 -2.52,6.718 -3.78,16.386 -3.78,28.984 0,5.879 0.11,10.672 0.31,14.383 0.22,3.703 0.74,7.035 1.58,9.972 2.38,9.102 7.17,16.387 14.39,21.844 7.21,5.461 15.92,8.184 26.14,8.184 12.73,0 22.54,-3.223 29.4,-9.656 6.86,-6.434 11.13,-15.539 12.81,-27.297 0.55,-3.926 0.84,-8.828 0.84,-14.707" /><path
         id="path48"
         style="fill:#253874;fill-opacity:1;fill-rule:nonzero;stroke:none"
         d="m 1999.71,498.148 c 1.11,-0.554 1.53,-1.464 1.26,-2.722 l -2.31,-10.293 c -0.42,-1.399 -1.33,-1.817 -2.73,-1.258 -2.38,0.973 -5.12,1.461 -8.19,1.461 l -2.74,-0.203 c -7.27,-0.285 -13.3,-2.981 -18.05,-8.086 -4.77,-5.109 -7.14,-11.582 -7.14,-19.422 v -61.957 c 0,-1.395 -0.7,-2.098 -2.1,-2.098 H 1947 c -1.4,0 -2.1,0.703 -2.1,2.098 V 497.73 c 0,1.399 0.7,2.102 2.1,2.102 h 10.71 c 1.4,0 2.1,-0.703 2.1,-2.102 v -12.812 c 0,-0.418 0.11,-0.664 0.31,-0.734 0.22,-0.067 0.38,0.039 0.53,0.316 2.94,5.184 6.68,9.207 11.23,12.078 4.55,2.871 9.83,4.305 15.86,4.305 4.62,0 8.61,-0.918 11.97,-2.735" /><path
         id="path50"
         style="fill:#253874;fill-opacity:1;fill-rule:nonzero;stroke:none"
         d="m 2023.44,395.883 v 102.062 c 0,1.395 0.7,2.098 2.1,2.098 h 10.7 c 1.4,0 2.1,-0.703 2.1,-2.098 V 395.883 c 0,-1.406 -0.7,-2.098 -2.1,-2.098 h -10.7 c -1.4,0 -2.1,0.692 -2.1,2.098 z m -0.42,126.633 c -2.24,2.238 -3.36,5.039 -3.36,8.398 0,3.496 1.12,6.328 3.36,8.504 2.24,2.168 5.04,3.254 8.4,3.254 3.36,0 6.15,-1.086 8.4,-3.254 2.24,-2.176 3.36,-5.008 3.36,-8.504 0,-3.359 -1.12,-6.16 -3.36,-8.398 -2.25,-2.246 -5.04,-3.36 -8.4,-3.36 -3.36,0 -6.16,1.114 -8.4,3.36" /><path
         id="path52"
         style="fill:#253874;fill-opacity:1;fill-rule:nonzero;stroke:none"
         d="m 2145.76,491.43 c 6.65,-6.582 9.98,-15.399 9.98,-26.453 v -69.309 c 0,-1.395 -0.71,-2.098 -2.1,-2.098 h -10.72 c -1.4,0 -2.1,0.703 -2.1,2.098 v 66.367 c 0,7.695 -2.34,13.996 -7.04,18.899 -4.68,4.902 -10.74,7.351 -18.16,7.351 -7.7,0 -13.93,-2.383 -18.69,-7.148 -4.76,-4.754 -7.14,-10.985 -7.14,-18.68 v -66.789 c 0,-1.395 -0.7,-2.098 -2.1,-2.098 h -10.7 c -1.41,0 -2.1,0.703 -2.1,2.098 V 497.73 c 0,1.399 0.69,2.102 2.1,2.102 h 10.7 c 1.4,0 2.1,-0.703 2.1,-2.102 v -9.023 c 0,-0.285 0.11,-0.496 0.32,-0.637 0.21,-0.136 0.38,-0.066 0.52,0.215 6.16,8.676 15.61,13.02 28.35,13.02 11.2,0 20.13,-3.293 26.78,-9.875" /><path
         id="path54"
         style="fill:#253874;fill-opacity:1;fill-rule:nonzero;stroke:none"
         d="m 2253.38,433.473 c 0.14,3.074 0.21,7.558 0.21,13.437 0,7.137 -0.07,11.934 -0.21,14.383 -0.14,2.453 -0.49,4.727 -1.05,6.828 -1.12,5.879 -3.89,10.742 -8.29,14.598 -4.42,3.847 -9.98,5.773 -16.7,5.773 -6.58,0 -12.15,-1.887 -16.69,-5.676 -4.55,-3.777 -7.75,-8.679 -9.56,-14.695 -1.4,-4.484 -2.1,-11.476 -2.1,-20.996 0,-10.227 0.7,-17.293 2.1,-21.211 1.39,-5.879 4.44,-10.754 9.14,-14.601 4.69,-3.848 10.39,-5.77 17.11,-5.77 6.86,0 12.5,1.895 16.9,5.672 4.42,3.781 7.18,8.605 8.3,14.484 0.42,2.098 0.7,4.696 0.84,7.774 z m 2.31,66.359 h 10.71 c 1.4,0 2.1,-0.703 2.1,-2.102 V 397.145 c 0,-15.684 -4.51,-27.161 -13.54,-34.446 -9.04,-7.273 -21.46,-10.918 -37.28,-10.918 -3.22,0 -5.66,0.071 -7.35,0.207 -1.4,0.145 -2.1,0.918 -2.1,2.313 l 0.42,9.66 c 0,0.703 0.21,1.23 0.63,1.57 0.42,0.352 0.91,0.461 1.48,0.324 l 5.66,-0.214 c 13.02,0 22.47,2.558 28.35,7.664 5.88,5.117 8.82,13.203 8.82,24.258 v 7.765 c 0,0.281 -0.1,0.457 -0.31,0.527 -0.21,0.067 -0.46,-0.031 -0.74,-0.312 -6.44,-8.398 -15.61,-12.598 -27.51,-12.598 -9.1,0 -17.18,2.442 -24.25,7.344 -7.07,4.902 -11.8,11.836 -14.17,20.793 -1.68,5.738 -2.53,14.285 -2.53,25.625 0,6.148 0.17,11.336 0.52,15.535 0.36,4.199 1.09,7.977 2.21,11.34 2.52,8.395 7.07,15.152 13.65,20.262 6.58,5.117 14.5,7.664 23.73,7.664 12.46,0 21.91,-4.129 28.35,-12.379 0.28,-0.285 0.53,-0.356 0.74,-0.219 0.21,0.137 0.31,0.352 0.31,0.637 v 8.183 c 0,1.399 0.7,2.102 2.1,2.102" /><path
         id="path56"
         style="fill:#253874;fill-opacity:1;fill-rule:nonzero;stroke:none"
         d="m 2312.91,396.305 c -6.09,2.519 -10.78,5.879 -14.07,10.078 -3.29,4.199 -4.93,8.887 -4.93,14.074 v 2.516 c 0,1.398 0.7,2.101 2.1,2.101 h 10.08 c 1.39,0 2.1,-0.703 2.1,-2.101 v -1.68 c 0,-4.617 2.42,-8.652 7.24,-12.078 4.84,-3.43 10.89,-5.149 18.17,-5.149 7.27,0 13.16,1.653 17.64,4.942 4.48,3.285 6.72,7.453 6.72,12.492 0,3.496 -1.16,6.367 -3.46,8.613 -2.32,2.235 -5.04,3.992 -8.2,5.254 -3.14,1.262 -8.01,2.86 -14.59,4.824 -7.84,2.235 -14.28,4.481 -19.32,6.719 -5.04,2.235 -9.28,5.36 -12.71,9.344 -3.43,3.996 -5.14,9.062 -5.14,15.226 0,8.965 3.5,16.106 10.5,21.426 7,5.313 16.24,7.977 27.72,7.977 7.69,0 14.52,-1.258 20.48,-3.778 5.94,-2.519 10.52,-5.988 13.75,-10.398 3.22,-4.406 4.83,-9.348 4.83,-14.809 v -0.625 c 0,-1.406 -0.7,-2.097 -2.1,-2.097 h -9.87 c -1.4,0 -2.1,0.691 -2.1,2.097 v 0.625 c 0,4.758 -2.28,8.75 -6.83,11.977 -4.55,3.219 -10.67,4.832 -18.37,4.832 -7.14,0 -12.88,-1.445 -17.22,-4.309 -4.34,-2.871 -6.51,-6.824 -6.51,-11.863 0,-4.765 2.1,-8.398 6.3,-10.918 4.2,-2.531 10.71,-5.051 19.53,-7.57 8.12,-2.379 14.7,-4.617 19.74,-6.715 5.04,-2.102 9.37,-5.148 13.02,-9.133 3.64,-3.992 5.46,-9.211 5.46,-15.644 0,-9.102 -3.57,-16.387 -10.71,-21.844 -7.14,-5.461 -16.59,-8.188 -28.35,-8.188 -7.84,0 -14.8,1.262 -20.9,3.782" /><path
         id="path58"
         style="fill:#253874;fill-opacity:1;fill-rule:nonzero;stroke:none"
         d="m 1512.93,205.668 v 142.805 c 0,1.394 0.71,2.097 2.1,2.097 h 10.72 c 1.39,0 2.1,-0.703 2.1,-2.097 v -85.887 c 0,-0.285 0.1,-0.5 0.31,-0.637 0.21,-0.136 0.45,-0.07 0.73,0.215 l 44.52,46.621 c 0.71,0.692 1.55,1.047 2.52,1.047 h 12.61 c 0.84,0 1.4,-0.285 1.68,-0.844 0.27,-0.554 0.14,-1.121 -0.42,-1.679 l -26.89,-29.813 c -0.28,-0.285 -0.35,-0.637 -0.2,-1.055 l 32.13,-70.351 0.2,-0.84 c 0,-1.125 -0.62,-1.68 -1.88,-1.68 h -11.35 c -1.12,0 -1.88,0.555 -2.3,1.68 l -27.09,61.316 c -0.29,0.567 -0.64,0.637 -1.06,0.215 l -23.09,-24.363 c -0.29,-0.273 -0.42,-0.625 -0.42,-1.043 v -35.707 c 0,-1.395 -0.71,-2.098 -2.1,-2.098 h -10.72 c -1.39,0 -2.1,0.703 -2.1,2.098" /><path
         id="path60"
         style="fill:#253874;fill-opacity:1;fill-rule:nonzero;stroke:none"
         d="m 1672.95,308.148 c 1.13,-0.554 1.55,-1.464 1.26,-2.722 l -2.3,-10.293 c -0.42,-1.399 -1.34,-1.817 -2.74,-1.258 -2.38,0.973 -5.1,1.461 -8.19,1.461 l -2.72,-0.203 c -7.29,-0.285 -13.3,-2.981 -18.07,-8.086 -4.76,-5.109 -7.14,-11.582 -7.14,-19.422 v -61.957 c 0,-1.395 -0.7,-2.098 -2.1,-2.098 h -10.7 c -1.41,0 -2.1,0.703 -2.1,2.098 V 307.73 c 0,1.399 0.69,2.102 2.1,2.102 h 10.7 c 1.4,0 2.1,-0.703 2.1,-2.102 v -12.812 c 0,-0.418 0.11,-0.664 0.32,-0.734 0.21,-0.067 0.38,0.039 0.52,0.316 2.94,5.184 6.69,9.207 11.24,12.078 4.55,2.871 9.84,4.305 15.85,4.305 4.62,0 8.61,-0.918 11.97,-2.735" /><path
         id="path62"
         style="fill:#253874;fill-opacity:1;fill-rule:nonzero;stroke:none"
         d="m 1715.69,293.141 c -4.55,-3.575 -7.53,-8.371 -8.93,-14.387 -0.84,-2.938 -1.39,-7.703 -1.68,-14.285 0,-0.555 0.29,-0.84 0.84,-0.84 h 54.4 c 0.55,0 0.84,0.285 0.84,0.84 -0.29,6.308 -0.71,10.781 -1.26,13.449 -1.55,6.297 -4.66,11.297 -9.35,15.008 -4.7,3.711 -10.6,5.566 -17.74,5.566 -6.87,0 -12.57,-1.785 -17.12,-5.351 z m 60.16,-33.293 v -6.719 c 0,-1.395 -0.7,-2.098 -2.1,-2.098 h -67.83 c -0.55,0 -0.84,-0.281 -0.84,-0.84 0.29,-7.695 0.71,-12.668 1.26,-14.914 1.55,-6.297 4.84,-11.269 9.88,-14.902 5.03,-3.641 11.47,-5.469 19.31,-5.469 5.88,0 11.07,1.34 15.55,3.996 4.47,2.657 7.98,6.434 10.5,11.336 0.84,1.262 1.81,1.543 2.94,0.844 l 8.19,-4.828 c 1.11,-0.703 1.4,-1.68 0.84,-2.938 -3.51,-6.73 -8.76,-12.011 -15.75,-15.859 -7,-3.848 -15.05,-5.773 -24.15,-5.773 -9.94,0.136 -18.27,2.523 -24.99,7.14 -6.72,4.617 -11.56,11.055 -14.5,19.317 -2.52,6.718 -3.77,16.386 -3.77,28.984 0,5.879 0.1,10.672 0.31,14.383 0.21,3.703 0.74,7.035 1.58,9.972 2.37,9.102 7.17,16.387 14.38,21.844 7.21,5.461 15.92,8.184 26.15,8.184 12.73,0 22.54,-3.219 29.39,-9.656 6.87,-6.434 11.13,-15.539 12.81,-27.297 0.56,-3.926 0.84,-8.828 0.84,-14.707" /><path
         id="path64"
         style="fill:#253874;fill-opacity:1;fill-rule:nonzero;stroke:none"
         d="m 1870.36,240.953 c 0.55,3.777 0.84,9.031 0.84,15.754 0,6.715 -0.29,12 -0.84,15.848 -0.57,3.847 -1.55,7.246 -2.94,10.183 -1.68,4.758 -4.46,8.575 -8.3,11.446 -3.85,2.871 -8.44,4.308 -13.75,4.308 -5.61,0 -10.43,-1.398 -14.5,-4.199 -4.06,-2.805 -7,-6.516 -8.81,-11.133 -1.68,-3.074 -2.92,-6.543 -3.68,-10.39 -0.77,-3.856 -1.16,-9.211 -1.16,-16.063 0,-6.582 0.28,-11.73 0.84,-15.441 0.56,-3.711 1.54,-7.032 2.94,-9.973 1.68,-5.039 4.66,-9.031 8.93,-11.973 4.26,-2.937 9.34,-4.414 15.22,-4.414 5.61,0 10.29,1.477 14.07,4.414 3.78,2.942 6.59,6.856 8.4,11.762 1.26,2.801 2.17,6.09 2.74,9.871 z m 3.14,109.617 h 10.71 c 1.4,0 2.1,-0.703 2.1,-2.097 V 205.668 c 0,-1.395 -0.7,-2.098 -2.1,-2.098 h -10.71 c -1.4,0 -2.1,0.703 -2.1,2.098 v 8.82 c 0,0.282 -0.1,0.457 -0.31,0.528 -0.21,0.07 -0.46,-0.032 -0.73,-0.313 -3.09,-4.062 -6.9,-7.219 -11.45,-9.453 -4.55,-2.238 -9.63,-3.359 -15.22,-3.359 -9.81,0 -18.03,2.519 -24.68,7.558 -6.65,5.039 -11.23,11.903 -13.75,20.586 -1.96,6.301 -2.94,15.184 -2.94,26.672 0,11.617 0.84,20.293 2.52,26.031 2.52,8.969 7.14,15.996 13.86,21.106 6.71,5.117 15.04,7.664 24.99,7.664 5.45,0 10.49,-1.082 15.11,-3.25 4.62,-2.168 8.47,-5.285 11.56,-9.344 0.27,-0.285 0.52,-0.394 0.73,-0.316 0.21,0.07 0.31,0.246 0.31,0.531 v 49.344 c 0,1.394 0.7,2.097 2.1,2.097" /><path
         id="path66"
         style="fill:#253874;fill-opacity:1;fill-rule:nonzero;stroke:none"
         d="m 1922.22,205.883 v 102.062 c 0,1.395 0.7,2.098 2.1,2.098 h 10.71 c 1.4,0 2.1,-0.703 2.1,-2.098 V 205.883 c 0,-1.406 -0.7,-2.098 -2.1,-2.098 h -10.71 c -1.4,0 -2.1,0.692 -2.1,2.098 z m -0.42,126.633 c -2.24,2.238 -3.36,5.039 -3.36,8.398 0,3.496 1.12,6.328 3.36,8.504 2.24,2.168 5.04,3.254 8.4,3.254 3.36,0 6.16,-1.086 8.4,-3.254 2.24,-2.176 3.36,-5.008 3.36,-8.504 0,-3.359 -1.12,-6.16 -3.36,-8.398 -2.24,-2.246 -5.04,-3.36 -8.4,-3.36 -3.36,0 -6.16,1.114 -8.4,3.36" /><path
         id="path68"
         style="fill:#253874;fill-opacity:1;fill-rule:nonzero;stroke:none"
         d="m 1995.82,293.141 c -4.55,-3.575 -7.52,-8.371 -8.92,-14.387 -0.84,-2.938 -1.41,-7.703 -1.68,-14.285 0,-0.555 0.27,-0.84 0.84,-0.84 h 54.38 c 0.56,0 0.84,0.285 0.84,0.84 -0.28,6.308 -0.7,10.781 -1.26,13.449 -1.54,6.297 -4.64,11.297 -9.34,15.008 -4.69,3.711 -10.61,5.566 -17.75,5.566 -6.85,0 -12.56,-1.785 -17.11,-5.351 z m 60.17,-33.293 v -6.719 c 0,-1.395 -0.7,-2.098 -2.1,-2.098 h -67.83 c -0.57,0 -0.84,-0.281 -0.84,-0.84 0.27,-7.695 0.69,-12.668 1.26,-14.914 1.53,-6.297 4.82,-11.269 9.87,-14.902 5.04,-3.641 11.48,-5.469 19.32,-5.469 5.88,0 11.05,1.34 15.54,3.996 4.48,2.657 7.97,6.434 10.49,11.336 0.84,1.262 1.83,1.543 2.94,0.844 l 8.2,-4.828 c 1.12,-0.703 1.39,-1.68 0.84,-2.938 -3.5,-6.73 -8.75,-12.011 -15.76,-15.859 -7,-3.848 -15.04,-5.773 -24.15,-5.773 -9.94,0.136 -18.27,2.523 -24.99,7.14 -6.72,4.617 -11.54,11.055 -14.48,19.317 -2.52,6.718 -3.78,16.386 -3.78,28.984 0,5.879 0.1,10.672 0.31,14.383 0.21,3.703 0.74,7.035 1.58,9.972 2.38,9.102 7.17,16.387 14.38,21.844 7.21,5.461 15.93,8.184 26.14,8.184 12.75,0 22.54,-3.219 29.41,-9.656 6.85,-6.434 11.13,-15.539 12.81,-27.297 0.56,-3.926 0.84,-8.828 0.84,-14.707" /><path
         id="path70"
         style="fill:#253874;fill-opacity:1;fill-rule:nonzero;stroke:none"
         d="m 2129.69,297.445 h -23.73 c -0.56,0 -0.84,-0.281 -0.84,-0.84 v -61.953 c 0,-6.718 1.51,-11.441 4.52,-14.179 3.01,-2.723 7.74,-4.09 14.17,-4.09 h 5.26 c 1.39,0 2.1,-0.703 2.1,-2.102 v -8.613 c 0,-1.395 -0.71,-2.098 -2.1,-2.098 -1.68,-0.136 -4.28,-0.207 -7.78,-0.207 -10.07,0 -17.7,1.887 -22.89,5.664 -5.17,3.782 -7.76,10.782 -7.76,21.008 v 66.57 c 0,0.559 -0.28,0.84 -0.84,0.84 h -12.81 c -1.41,0 -2.1,0.696 -2.1,2.102 v 8.183 c 0,1.399 0.69,2.102 2.1,2.102 h 12.81 c 0.56,0 0.84,0.281 0.84,0.836 v 24.367 c 0,1.395 0.69,2.098 2.1,2.098 h 10.28 c 1.41,0 2.1,-0.703 2.1,-2.098 v -24.367 c 0,-0.555 0.28,-0.836 0.84,-0.836 h 23.73 c 1.41,0 2.1,-0.703 2.1,-2.102 v -8.183 c 0,-1.406 -0.69,-2.102 -2.1,-2.102" /><path
         id="path72"
         style="fill:#253874;fill-opacity:1;fill-rule:nonzero;stroke:none"
         d="m 2179.57,293.141 c -4.55,-3.575 -7.52,-8.371 -8.92,-14.387 -0.84,-2.938 -1.41,-7.703 -1.68,-14.285 0,-0.555 0.27,-0.84 0.84,-0.84 h 54.38 c 0.56,0 0.84,0.285 0.84,0.84 -0.28,6.308 -0.7,10.781 -1.26,13.449 -1.54,6.297 -4.64,11.297 -9.34,15.008 -4.69,3.711 -10.61,5.566 -17.75,5.566 -6.85,0 -12.56,-1.785 -17.11,-5.351 z m 60.17,-33.293 v -6.719 c 0,-1.395 -0.7,-2.098 -2.1,-2.098 h -67.83 c -0.57,0 -0.84,-0.281 -0.84,-0.84 0.27,-7.695 0.69,-12.668 1.26,-14.914 1.53,-6.297 4.82,-11.269 9.87,-14.902 5.04,-3.641 11.48,-5.469 19.32,-5.469 5.88,0 11.05,1.34 15.54,3.996 4.48,2.657 7.97,6.434 10.49,11.336 0.84,1.262 1.83,1.543 2.94,0.844 l 8.2,-4.828 c 1.12,-0.703 1.39,-1.68 0.84,-2.938 -3.5,-6.73 -8.75,-12.011 -15.76,-15.859 -7,-3.848 -15.04,-5.773 -24.15,-5.773 -9.94,0.136 -18.27,2.523 -24.99,7.14 -6.72,4.617 -11.54,11.055 -14.48,19.317 -2.52,6.718 -3.78,16.386 -3.78,28.984 0,5.879 0.1,10.672 0.31,14.383 0.21,3.703 0.74,7.035 1.58,9.972 2.38,9.102 7.17,16.387 14.38,21.844 7.21,5.461 15.93,8.184 26.14,8.184 12.75,0 22.54,-3.219 29.41,-9.656 6.85,-6.434 11.13,-15.539 12.81,-27.297 0.56,-3.926 0.84,-8.828 0.84,-14.707" /><path
         id="path74"
         style="fill:#253874;fill-opacity:1;fill-rule:nonzero;stroke:none"
         d="m 2340.22,301.43 c 6.65,-6.582 9.98,-15.399 9.98,-26.453 v -69.309 c 0,-1.395 -0.7,-2.098 -2.1,-2.098 h -10.71 c -1.41,0 -2.1,0.703 -2.1,2.098 v 66.371 c 0,7.691 -2.35,13.992 -7.04,18.895 -4.69,4.902 -10.75,7.355 -18.17,7.355 -7.69,0 -13.92,-2.387 -18.69,-7.152 -4.75,-4.754 -7.14,-10.985 -7.14,-18.68 v -66.789 c 0,-1.395 -0.7,-2.098 -2.1,-2.098 h -10.7 c -1.41,0 -2.1,0.703 -2.1,2.098 V 307.73 c 0,1.399 0.69,2.102 2.1,2.102 h 10.7 c 1.4,0 2.1,-0.703 2.1,-2.102 v -9.023 c 0,-0.285 0.11,-0.496 0.32,-0.637 0.21,-0.136 0.39,-0.066 0.52,0.219 6.16,8.672 15.62,13.016 28.35,13.016 11.2,0 20.13,-3.293 26.78,-9.875" /><path
         id="path76"
         style="fill:#74ca56;fill-opacity:1;fill-rule:nonzero;stroke:none"
         d="m 1174.97,526.809 c -19.5,0 -35.31,15.804 -35.31,35.304 0,19.5 15.81,35.305 35.31,35.305 19.5,0 35.31,-15.805 35.31,-35.305 0,-19.5 -15.81,-35.304 -35.31,-35.304 z m 0,-113.762 c -19.5,0 -35.31,15.805 -35.31,35.305 0,19.5 15.81,35.304 35.31,35.304 19.5,0 35.31,-15.804 35.31,-35.304 0,-19.5 -15.81,-35.305 -35.31,-35.305 z m 0,-113.766 c -19.5,0 -35.31,15.813 -35.31,35.309 0,19.496 15.81,35.305 35.31,35.305 19.5,0 35.31,-15.809 35.31,-35.305 0,-19.496 -15.81,-35.309 -35.31,-35.309 z M 1356.72,468.52 C 1347.71,697.867 1163.77,886.012 934.664,899.848 782.117,909.063 644.828,842.219 556.871,733.734 547.52,722.199 531.082,720.02 518.727,728.262 458.199,768.637 383.777,789.816 304.105,782.902 141.891,768.828 11.8984,636.246 0.800781,473.801 -12.5156,278.809 141.715,116.5 333.848,116.5 c 68.398,0 131.949,20.625 184.879,55.926 12.363,8.25 28.8,6.051 38.164,-5.492 C 639.449,65.1289 765.449,0 906.734,0 1161.49,0 1366.83,211.523 1356.72,468.52" /><path
         id="path78"
         style="fill:#ffffff;fill-opacity:1;fill-rule:nonzero;stroke:none"
         d="m 249.227,304.375 -80.352,292.461 -0.434,1.73 c 0,2.59 1.582,3.891 4.758,3.891 h 65.664 c 2.875,0 4.75,-1.445 5.614,-4.32 l 37.582,-157.254 c 0.285,-1.153 0.718,-1.727 1.296,-1.727 0.575,0 1.004,0.574 1.297,1.727 l 33.696,156.816 c 0.574,3.172 2.441,4.758 5.617,4.758 h 60.047 c 2.879,0 4.754,-1.445 5.617,-4.32 l 37.582,-157.254 c 0.285,-1.153 0.719,-1.727 1.301,-1.727 0.57,0 1.004,0.574 1.293,1.727 l 34.988,156.816 c 0.578,3.172 2.449,4.758 5.617,4.758 h 63.942 c 4.027,0 5.613,-1.879 4.75,-5.621 L 466.094,304.375 c -0.864,-2.887 -2.887,-4.32 -6.051,-4.32 h -61.777 c -3.168,0 -5.039,1.578 -5.614,4.75 l -37.586,166.754 c -0.285,1.148 -0.722,1.726 -1.293,1.726 -0.582,0 -1.015,-0.578 -1.296,-1.726 l -33.7,-166.754 c -0.578,-3.172 -2.449,-4.75 -5.613,-4.75 h -57.887 c -3.172,0 -5.183,1.433 -6.05,4.32" /><path
         id="path80"
         style="fill:#253874;fill-opacity:1;fill-rule:nonzero;stroke:none"
         d="m 609.73,305.457 c -13.679,5.324 -24.265,12.668 -31.753,22.027 -7.489,9.356 -11.231,19.801 -11.231,31.321 v 3.89 c 0,1.438 0.5,2.657 1.516,3.672 1.004,1.008 2.226,1.512 3.672,1.512 h 38.011 c 1.442,0 2.66,-0.504 3.672,-1.512 1.004,-1.015 1.516,-2.234 1.516,-3.672 v -0.863 c 0,-7.203 3.953,-13.469 11.879,-18.793 7.918,-5.332 17.929,-7.996 30.023,-7.996 11.516,0 20.879,2.379 28.082,7.129 7.192,4.754 10.797,10.73 10.797,17.93 0,6.621 -2.957,11.589 -8.855,14.902 -5.907,3.312 -15.481,6.844 -28.731,10.586 l -16.414,5.183 c -14.687,4.321 -27.074,8.926 -37.148,13.829 -10.09,4.89 -18.578,11.586 -25.489,20.086 -6.914,8.492 -10.371,19.367 -10.371,32.613 0,20.156 7.918,36.215 23.758,48.168 15.836,11.949 36.727,17.929 62.645,17.929 17.562,0 32.972,-2.808 46.222,-8.421 13.242,-5.622 23.469,-13.395 30.672,-23.332 7.195,-9.934 10.801,-21.239 10.801,-33.911 0,-1.445 -0.508,-2.664 -1.516,-3.671 -1.011,-1.016 -2.23,-1.512 -3.672,-1.512 h -36.718 c -1.446,0 -2.664,0.496 -3.672,1.512 -1.012,1.007 -1.512,2.226 -1.512,3.671 0,7.485 -3.672,13.75 -11.016,18.789 -7.343,5.04 -17.355,7.563 -30.019,7.563 -11.238,0 -20.383,-2.094 -27.438,-6.262 -7.062,-4.179 -10.582,-10.011 -10.582,-17.496 0,-6.914 3.379,-12.172 10.153,-15.773 6.761,-3.602 18.07,-7.555 33.91,-11.879 l 9.508,-2.586 c 15.258,-4.617 28.074,-9.293 38.445,-14.043 10.367,-4.754 19.152,-11.383 26.355,-19.875 7.192,-8.496 10.793,-19.512 10.793,-33.047 0,-20.453 -8.066,-36.504 -24.187,-48.168 -16.133,-11.66 -37.582,-17.496 -64.371,-17.496 -18.145,0 -34.059,2.664 -47.735,7.996" /><path
         id="path82"
         style="fill:#253874;fill-opacity:1;fill-rule:nonzero;stroke:none"
         d="m 789.871,301.566 c -1.008,1.008 -1.512,2.227 -1.512,3.672 V 597.27 c 0,1.437 0.504,2.664 1.512,3.671 1.008,1.008 2.227,1.516 3.672,1.516 h 39.746 c 1.438,0 2.656,-0.508 3.672,-1.516 1.008,-1.007 1.512,-2.234 1.512,-3.671 V 441.32 c 0,-0.863 0.281,-1.445 0.863,-1.73 0.574,-0.289 1.148,0 1.727,0.867 l 69.988,77.328 c 2.012,2.012 4.168,3.02 6.476,3.02 h 45.789 c 2.879,0 4.325,-1.008 4.325,-3.02 0,-0.867 -0.438,-2.023 -1.297,-3.457 L 911.48,448.664 c -0.867,-0.867 -1.011,-1.875 -0.429,-3.023 l 64.804,-139.536 c 0.567,-1.16 0.86,-2.023 0.86,-2.593 0,-2.309 -1.582,-3.457 -4.746,-3.457 h -41.91 c -2.887,0 -4.903,1.293 -6.051,3.886 l -47.09,109.731 c -0.289,0.57 -0.797,0.93 -1.508,1.082 -0.722,0.141 -1.23,-0.074 -1.515,-0.652 l -34.559,-39.747 c -0.582,-1.152 -0.863,-2.156 -0.863,-3.019 v -66.098 c 0,-1.445 -0.504,-2.664 -1.512,-3.672 -1.016,-1.015 -2.234,-1.511 -3.672,-1.511 h -39.746 c -1.445,0 -2.664,0.496 -3.672,1.511" /></g></g></svg>