<?xml version="1.0" encoding="utf-8"?>
<!-- Generator: Adobe Illustrator 28.2.0, SVG Export Plug-In . SVG Version: 6.00 Build 0)  -->
<svg version="1.1" id="Laag_1" xmlns="http://www.w3.org/2000/svg" xmlns:xlink="http://www.w3.org/1999/xlink" x="0px" y="0px"
	 viewBox="0 0 340.2 141.7" style="enable-background:new 0 0 340.2 141.7;" xml:space="preserve">
<style type="text/css">
	.st0{fill:#FFFFFF;}
	.st1{fill:#8AC16A;}
	.st2{fill:#3F2362;}
	.st3{fill:none;}
</style>
<path class="st0" d="M133,88.7c-1.4-1.4-2.9-2.4-4.6-3.1c5.1-18.9,0.2-39.9-14.7-54.8c-22.1-22.1-58-22.1-80.2,0
	c-22.1,22.1-22.1,58,0,80.2c22.1,22.1,58,22.1,80.2,0c0.1-0.1,0.2-0.2,0.3-0.3c5.7,4.2,13.8,3.8,18.9-1.4
	C138.6,103.6,138.6,94.4,133,88.7z"/>
<circle class="st1" cx="122.7" cy="99" r="6.4"/>
<g>
	<path class="st2" d="M144.2,57.3h2.6l1.7,6.2l1.9-6.2h2.1l1.9,6.2l1.7-6.2h2.6l-3,9.9h-2.2l-1.9-6.5l-1.9,6.5h-2.2L144.2,57.3z"/>
	<path class="st2" d="M168,61v6.2h-2.2l-0.2-1.3c-0.6,0.9-1.7,1.5-3,1.5c-2.1,0-3.6-1.3-3.6-3.2c0-1.2,0.5-2,1.5-2.5
		c0.7-0.3,1.5-0.4,2.6-0.4h2.5V61c0-1.1-0.7-1.7-1.9-1.7c-1,0-1.9,0.5-2.7,1.5l-1.7-1.5c1.2-1.4,2.6-2.1,4.4-2.1
		C166.4,57.1,168,58.6,168,61z M165.6,63.1h-2.1c-0.8,0-1.3,0.1-1.6,0.3s-0.4,0.5-0.4,0.8c0,0.7,0.6,1.1,1.5,1.1
		C164.5,65.4,165.6,64.3,165.6,63.1z"/>
	<path class="st2" d="M178.7,61v6.2h-2.2l-0.2-1.3c-0.6,0.9-1.7,1.5-3,1.5c-2.1,0-3.6-1.3-3.6-3.2c0-1.2,0.5-2,1.5-2.5
		c0.7-0.3,1.5-0.4,2.6-0.4h2.5V61c0-1.1-0.7-1.7-1.9-1.7c-1,0-1.9,0.5-2.7,1.5l-1.7-1.5c1.2-1.4,2.6-2.1,4.4-2.1
		C177,57.1,178.7,58.6,178.7,61z M176.3,63.1h-2.1c-0.8,0-1.3,0.1-1.6,0.3s-0.4,0.5-0.4,0.8c0,0.7,0.6,1.1,1.5,1.1
		C175.1,65.4,176.3,64.3,176.3,63.1z"/>
	<path class="st2" d="M188,57.7l-1.2,2.1c-0.3-0.2-0.7-0.3-1.2-0.3c-1.5,0-2.2,0.9-2.2,2.8v5H181v-9.9h2.4V59
		c0.4-1.2,1.5-1.9,2.6-1.9C186.8,57.1,187.4,57.3,188,57.7z"/>
	<path class="st2" d="M198.7,62.3c0,3-1.5,5.1-4.2,5.1c-1.1,0-2.2-0.3-2.8-1.2v1h-2.4V53.3h2.4v5.1c0.6-0.7,1.7-1.2,2.8-1.2
		C196.9,57.1,198.7,59,198.7,62.3z M196.3,62.3c0-1.8-0.8-3-2.4-3c-1.7,0-2.5,1.3-2.5,3c0,1.6,0.7,2.9,2.5,2.9
		C195.5,65.2,196.3,64.1,196.3,62.3z"/>
	<path class="st2" d="M200,62.3c0-2.8,1.9-5.1,4.9-5.1s4.9,2.3,4.9,5.1s-1.9,5.1-4.9,5.1S200,65,200,62.3z M207.5,62.3
		c0-1.6-0.7-3-2.5-3s-2.5,1.4-2.5,3s0.7,3,2.5,3S207.5,63.9,207.5,62.3z"/>
	<path class="st2" d="M218.7,57.7l-1.2,2.1c-0.3-0.2-0.7-0.3-1.2-0.3c-1.5,0-2.2,0.9-2.2,2.8v5h-2.4v-9.9h2.4V59
		c0.4-1.2,1.5-1.9,2.6-1.9C217.5,57.1,218.1,57.3,218.7,57.7z"/>
	<path class="st2" d="M228,68.5c0,2.1-1.9,2.9-4.5,2.9c-2.9,0-4.6-1.1-4.6-3.1c0-0.2,0-0.3,0-0.4l1.4-0.9c-0.7-0.4-1.2-1-1.2-2
		c0-0.9,0.3-1.5,0.9-2c-0.5-0.6-0.8-1.4-0.8-2.3c0-2.1,1.8-3.6,4-3.6c0.9,0,1.7,0.2,2.3,0.6l1.5-1.3l1.3,1.5l-1.4,1.2
		c0.3,0.5,0.4,1.1,0.4,1.7c0,2.2-1.8,3.6-4,3.6c-0.7,0-1.3-0.1-1.9-0.4c-0.2,0.1-0.3,0.3-0.3,0.5c0,0.7,1,0.9,2.2,1.1
		C225.5,66,228,66.2,228,68.5z M225.6,68.8c0-0.8-1.3-0.8-2.7-1l-0.8-0.1l-0.9,0.8c0,0.1,0,0.1,0,0.2c0,0.8,1.2,1.1,2.3,1.1
		C224.6,69.7,225.6,69.4,225.6,68.8z M221.7,60.8c0,0.9,0.6,1.7,1.7,1.7c1.1,0,1.6-0.7,1.6-1.7s-0.6-1.7-1.6-1.7
		C222.3,59.1,221.7,59.8,221.7,60.8z"/>
	<path class="st2" d="M231.1,59.2h-1.9v-1.9h1.9v-1.1c0-2.5,1.4-3.2,3-3.2c0.8,0,1.3,0.2,1.9,0.4l-0.8,1.8c-0.2-0.1-0.5-0.2-0.8-0.2
		c-0.9,0-0.9,0.8-0.9,1.1v1.1h2.3v1.9h-2.3v8h-2.4V59.2z"/>
	<path class="st2" d="M236.3,62.3c0-2.8,1.9-5.1,4.9-5.1s4.9,2.3,4.9,5.1s-1.9,5.1-4.9,5.1S236.3,65,236.3,62.3z M243.8,62.3
		c0-1.6-0.7-3-2.5-3s-2.5,1.4-2.5,3s0.7,3,2.5,3S243.8,63.9,243.8,62.3z"/>
	<path class="st2" d="M257,60.8v6.4h-2.4v-5.8c0-0.7,0-2.2-1.8-2.2c-2.2,0-2.2,2.3-2.2,4v3.9h-2.4v-9.9h2.4v1.1
		c0.7-0.9,1.8-1.3,3-1.3C255.7,57.1,257,58.5,257,60.8z"/>
	<path class="st2" d="M268.2,53.3v13.9h-2.4v-1c-0.7,0.8-1.8,1.2-2.8,1.2c-2.7,0-4.2-2.2-4.2-5.1c0-3.2,1.7-5.1,4.2-5.1
		c1.1,0,2.2,0.5,2.8,1.2v-5.1H268.2z M266,62.3c0-1.6-0.7-3-2.5-3c-1.6,0-2.4,1.1-2.4,3c0,1.8,0.7,2.9,2.3,2.9
		C265.3,65.2,266,63.9,266,62.3z"/>
	<path class="st2" d="M269.9,64.6l1.9-0.9c0.3,0.7,0.8,1.6,2.1,1.6c1.1,0,1.6-0.6,1.6-1.2c0-1.7-5.1-0.6-5.1-4.2
		c0-1.9,1.7-2.9,3.6-2.9c1.7,0,3,0.8,3.7,2.1l-1.9,1c-0.3-0.6-0.9-1.3-2-1.3c-0.8,0-1.3,0.4-1.3,0.8c0,1.5,5.2,0.6,5.2,4.2
		c0,2.3-2,3.3-3.8,3.3C272,67.4,270.4,66.1,269.9,64.6z"/>
	<path class="st2" d="M144.9,83.8l1.2-0.5c0.4,1,1.3,1.9,2.9,1.9c1.3,0,2.2-0.7,2.2-1.7c0-2.6-5.7-1-5.7-4.5c0-1.7,1.4-2.8,3.4-2.8
		c1.6,0,2.9,0.7,3.5,2.1l-1.1,0.6c-0.5-0.9-1.3-1.4-2.5-1.4s-2,0.5-2,1.4c0,2.3,5.7,0.9,5.7,4.6c0,2-1.6,3-3.5,3
		C147,86.4,145.4,85.4,144.9,83.8z"/>
	<path class="st2" d="M162.6,80.1v6.1h-1.3l-0.1-1.5c-0.8,1.1-2,1.7-3.5,1.7c-2.1,0-3.4-1.1-3.4-3c0-1,0.4-1.8,1.1-2.2
		c0.8-0.4,1.8-0.6,3.8-0.6h2v-0.5c0-1.7-0.9-2.7-2.6-2.7c-1.2,0-2.2,0.5-3,1.6l-1-0.8c1.1-1.4,2.3-2,4-2
		C161.2,76.2,162.6,77.6,162.6,80.1z M161.2,81.8L161.2,81.8l-1.9-0.1c-1.8,0-2.6,0.1-3.1,0.5c-0.4,0.3-0.5,0.7-0.5,1.3
		c0,1.1,0.9,1.8,2.4,1.8C160,85.2,161.2,83.9,161.2,81.8z"/>
	<path class="st2" d="M173.5,80.2v6h-1.4v-5.7c0-2.1-0.7-3.1-2.2-3.1c-1.9,0-2.9,1.6-2.9,4.4v4.4h-1.4v-9.9h1.4v1.4
		c0.6-1,1.8-1.6,3.3-1.6C172.4,76.2,173.5,77.5,173.5,80.2z"/>
	<path class="st2" d="M184.6,81.6h-7.2c0,2.2,1.2,3.5,3.2,3.5c1.1,0,1.9-0.3,2.8-1.2l1,0.8c-1.2,1.2-2.3,1.7-3.8,1.7
		c-3,0-4.5-2.2-4.5-5s1.5-5.1,4.4-5.1c3,0,4.3,2.4,4.3,4.6C184.6,81.1,184.6,81.4,184.6,81.6z M177.4,80.5h6c0,0,0-0.1,0-0.3
		c-0.1-1.6-1.1-2.8-2.9-2.8C178.6,77.3,177.5,78.7,177.4,80.5z"/>
	<path class="st2" d="M193.2,76.6l-0.7,1.1c-0.5-0.2-0.9-0.3-1.3-0.3c-1.5,0-2.6,1.1-2.6,3.3v5.5h-1.4v-9.9h1.4v1.5
		c0.7-1.3,1.9-1.6,2.9-1.6C192.1,76.2,192.7,76.3,193.2,76.6z"/>
	<path class="st2" d="M195,72.3h1.6v2H195V72.3z M195.1,76.3h1.4v9.9h-1.4V76.3z"/>
	<path class="st2" d="M207.6,80.2v6h-1.4v-5.7c0-2.1-0.7-3.1-2.2-3.1c-1.9,0-2.9,1.6-2.9,4.4v4.4h-1.4v-9.9h1.4v1.4
		c0.6-1,1.8-1.6,3.3-1.6C206.5,76.2,207.6,77.5,207.6,80.2z"/>
	<path class="st2" d="M218.4,87.7c0,1.9-1.7,2.7-4.2,2.7c-2.7,0-4.4-1.1-4.4-3c0-0.2,0-0.3,0-0.4l1.6-1.4c-0.8-0.3-1.3-0.9-1.3-1.9
		c0-0.8,0.4-1.4,1.1-1.9c-0.5-0.6-0.8-1.4-0.8-2.2c0-2,1.6-3.4,3.8-3.4c1,0,1.8,0.3,2.5,0.8l1.4-1.2l0.7,0.9l-1.3,1.1
		c0.3,0.5,0.5,1.2,0.5,1.9c0,2-1.6,3.4-3.7,3.4c-0.8,0-1.5-0.2-2-0.5c-0.4,0.2-0.6,0.6-0.6,1c0,1,1.2,1.2,2.7,1.5
		C216.1,85.3,218.4,85.6,218.4,87.7z M217.1,87.8c0-1.2-1.6-1.4-3.2-1.6c-0.4-0.1-0.9-0.1-1.3-0.2l-1.3,1.3c0,0.1,0,0.1,0,0.2
		c0,1.4,1.4,1.8,3.1,1.8C216,89.3,217.1,88.8,217.1,87.8z M211.8,79.6c0,1.3,0.9,2.3,2.4,2.3s2.4-1,2.4-2.3c0-1.4-0.9-2.3-2.3-2.3
		C212.8,77.3,211.8,78.3,211.8,79.6z"/>
	<path class="st2" d="M219.7,83.8l1.2-0.5c0.4,1,1.3,1.9,2.9,1.9c1.3,0,2.2-0.7,2.2-1.7c0-2.6-5.7-1-5.7-4.5c0-1.7,1.4-2.8,3.4-2.8
		c1.6,0,2.9,0.7,3.5,2.1l-1.1,0.6c-0.5-0.9-1.3-1.4-2.5-1.4s-2,0.5-2,1.4c0,2.3,5.7,0.9,5.7,4.6c0,2-1.6,3-3.5,3
		C221.8,86.4,220.2,85.4,219.7,83.8z"/>
	<path class="st2" d="M229.8,72.3h1.4v9.3l4.9-5.2h1.9l-3.6,3.7l4.1,6.2h-1.6l-3.4-5.3l-2.3,2.4v2.9h-1.4L229.8,72.3L229.8,72.3z"/>
	<path class="st2" d="M246.5,76.6l-0.7,1.1c-0.5-0.2-0.9-0.3-1.3-0.3c-1.5,0-2.6,1.1-2.6,3.3v5.5h-1.4v-9.9h1.4v1.5
		c0.7-1.3,1.9-1.6,2.9-1.6C245.4,76.2,246,76.3,246.5,76.6z"/>
	<path class="st2" d="M255.9,81.6h-7.2c0,2.2,1.2,3.5,3.2,3.5c1.1,0,1.9-0.3,2.8-1.2l1,0.8c-1.2,1.2-2.3,1.7-3.8,1.7
		c-3,0-4.5-2.2-4.5-5s1.5-5.1,4.4-5.1c3,0,4.3,2.4,4.3,4.6C255.9,81.1,255.9,81.4,255.9,81.6z M248.6,80.5h6c0,0,0-0.1,0-0.3
		c-0.1-1.6-1.1-2.8-2.9-2.8C249.9,77.3,248.8,78.7,248.6,80.5z"/>
	<path class="st2" d="M266.9,72.3v13.9h-1.4v-1.3c-0.7,0.9-1.8,1.5-3.3,1.5c-2.9,0-4.4-2.2-4.4-5.1c0-3.1,1.6-5.1,4.4-5.1
		c1.4,0,2.5,0.5,3.3,1.5v-5.4H266.9z M265.6,81.3c0-2.3-1.2-3.9-3.2-3.9s-3.2,1.5-3.2,3.9c0,2.2,1.1,3.9,3.2,3.9
		C264.5,85.1,265.6,83.5,265.6,81.3z"/>
	<path class="st2" d="M270,72.3h1.6v2H270V72.3z M270.1,76.3h1.4v9.9h-1.4V76.3z"/>
	<path class="st2" d="M282.7,81.6h-7.2c0,2.2,1.2,3.5,3.2,3.5c1.1,0,1.9-0.3,2.8-1.2l1,0.8c-1.2,1.2-2.3,1.7-3.8,1.7
		c-3,0-4.5-2.2-4.5-5s1.5-5.1,4.4-5.1c3,0,4.3,2.4,4.3,4.6C282.7,81.1,282.7,81.4,282.7,81.6z M275.4,80.5h6c0,0,0-0.1,0-0.3
		c-0.1-1.6-1.1-2.8-2.9-2.8C276.7,77.3,275.6,78.7,275.4,80.5z"/>
	<path class="st2" d="M289.3,86.1c-0.5,0.2-1,0.3-1.5,0.3c-1.3,0-2.3-0.7-2.3-2.5v-6.4h-1.6v-1.2h1.6v-2.6l1.4-1v3.6h2.4v1.2h-2.4
		v6.2c0,1,0.4,1.4,1.2,1.4c0.3,0,0.7-0.1,1.2-0.2L289.3,86.1z"/>
	<path class="st2" d="M299.3,81.6H292c0,2.2,1.2,3.5,3.2,3.5c1.1,0,1.9-0.3,2.8-1.2l1,0.8c-1.2,1.2-2.3,1.7-3.8,1.7
		c-3,0-4.5-2.2-4.5-5s1.5-5.1,4.4-5.1c3,0,4.3,2.4,4.3,4.6C299.3,81.1,299.3,81.4,299.3,81.6z M292,80.5h6c0,0,0-0.1,0-0.3
		c-0.1-1.6-1.1-2.8-2.9-2.8C293.3,77.3,292.2,78.7,292,80.5z"/>
	<path class="st2" d="M309.8,80.2v6h-1.4v-5.7c0-2.1-0.7-3.1-2.2-3.1c-1.9,0-2.9,1.6-2.9,4.4v4.4h-1.4v-9.9h1.4v1.4
		c0.6-1,1.8-1.6,3.3-1.6C308.7,76.2,309.8,77.5,309.8,80.2z"/>
</g>
<path class="st0" d="M323.6,105.4c-3.6,0-6.4-2.9-6.4-6.4s2.9-6.4,6.4-6.4s6.4,2.9,6.4,6.4S327.2,105.4,323.6,105.4z"/>
<path class="st1" d="M25.2,58.9H31c0.2,0,0.4,0.2,0.5,0.4l4,14.6c0.1,0.5,0.8,0.5,1,0l4.4-14.6c0.1-0.2,0.3-0.4,0.5-0.4h4.8
	c0.2,0,0.4,0.1,0.5,0.4L51,73.8c0.1,0.5,0.9,0.5,1,0l4-14.5c0.1-0.2,0.3-0.4,0.5-0.4h5.8c0.3,0,0.6,0.3,0.5,0.7l-7.9,25.6
	c-0.1,0.2-0.3,0.4-0.5,0.4h-5.1c-0.2,0-0.4-0.1-0.5-0.4l-4.6-15.4c-0.1-0.5-0.8-0.5-1,0l-4.6,15.4c-0.1,0.2-0.3,0.4-0.5,0.4H33
	c-0.2,0-0.4-0.1-0.5-0.4l-7.9-25.6C24.6,59.2,24.8,58.9,25.2,58.9z"/>
<path class="st2" d="M64.4,78.4l4.2-1.9c0.3-0.1,0.6,0,0.7,0.3c0.8,1.8,2.2,3.9,5.5,3.9c3,0,4.3-1.7,4.3-3.1
	c0-4.5-13.6-1.5-13.7-11.3c0-3.5,2.4-6.6,5.8-7.4c6.3-1.5,11.1,0.6,13.8,4.8c0.2,0.2,0.1,0.6-0.2,0.7l-4.1,2.3
	c-0.2,0.1-0.5,0-0.7-0.2c-0.9-1.5-2.4-3-5-3c-2.1,0-3.4,1-3.4,2.3c0,4,13.9,1.7,13.9,11.4c0,6.2-5.3,8.9-10.4,8.9
	c-5.4,0-9.6-3.2-11-7C64,78.8,64.2,78.5,64.4,78.4z"/>
<path class="st2" d="M91.3,47.9h5.4c0.3,0,0.5,0.2,0.5,0.5v20c0,0.5,0.6,0.7,0.9,0.3l8.7-9.6c0.1-0.1,0.2-0.2,0.4-0.2h7.3
	c0.5,0,0.7,0.5,0.4,0.9l-8.8,9.1c-0.2,0.2-0.2,0.4-0.1,0.6l10.3,15.2c0.2,0.3,0,0.8-0.4,0.8h-6.5c-0.2,0-0.3-0.1-0.4-0.2l-7.3-11.5
	c-0.2-0.3-0.6-0.3-0.8-0.1l-3.5,3.9c-0.1,0.1-0.1,0.2-0.1,0.3V85c0,0.3-0.2,0.5-0.5,0.5h-5.4c-0.3,0-0.5-0.2-0.5-0.5V48.4
	C90.8,48.1,91,47.9,91.3,47.9z"/>
<rect y="0" class="st3" width="340.2" height="141.7"/>
</svg>
