<?xml version="1.0" encoding="UTF-8" standalone="no"?>
<svg
   xmlns:dc="http://purl.org/dc/elements/1.1/"
   xmlns:cc="http://creativecommons.org/ns#"
   xmlns:rdf="http://www.w3.org/1999/02/22-rdf-syntax-ns#"
   xmlns:svg="http://www.w3.org/2000/svg"
   xmlns="http://www.w3.org/2000/svg"
   viewBox="0 0 260.98666 201.45332"
   height="201.45332"
   width="260.98666"
   xml:space="preserve"
   id="svg2"
   version="1.1"><metadata
     id="metadata8"><rdf:RDF><cc:Work
         rdf:about=""><dc:format>image/svg+xml</dc:format><dc:type
           rdf:resource="http://purl.org/dc/dcmitype/StillImage" /></cc:Work></rdf:RDF></metadata><defs
     id="defs6" /><g
     transform="matrix(1.3333333,0,0,-1.3333333,0,201.45333)"
     id="g10"><g
       transform="scale(0.1)"
       id="g12"><path
         id="path14"
         style="fill:#263873;fill-opacity:1;fill-rule:nonzero;stroke:none"
         d="m 574.379,383.988 -37.176,142.164 -0.207,0.852 c 0,1.258 0.762,1.883 2.305,1.883 h 26.047 c 1.394,0 2.304,-0.703 2.722,-2.098 l 19.953,-85.469 c 0.137,-0.57 0.348,-0.84 0.633,-0.84 0.274,0 0.489,0.27 0.625,0.84 l 19.328,85.262 c 0.418,1.535 1.329,2.305 2.723,2.305 h 25.41 c 1.543,0 2.52,-0.703 2.942,-2.098 l 21.004,-85.469 c 0.136,-0.422 0.343,-0.66 0.625,-0.73 0.285,-0.078 0.488,0.16 0.636,0.73 l 19.317,85.262 c 0.418,1.535 1.328,2.305 2.734,2.305 h 24.773 c 1.965,0 2.735,-0.907 2.317,-2.735 L 676.645,383.988 c -0.418,-1.398 -1.395,-2.097 -2.938,-2.097 h -24.992 c -1.395,0 -2.313,0.699 -2.735,2.097 l -21.414,90.934 c -0.136,0.558 -0.351,0.84 -0.625,0.84 -0.285,0 -0.5,-0.282 -0.636,-0.84 l -19.95,-90.723 c -0.285,-1.539 -1.191,-2.308 -2.726,-2.308 H 577.32 c -1.543,0 -2.519,0.699 -2.941,2.097" /><path
         id="path16"
         style="fill:#263873;fill-opacity:1;fill-rule:nonzero;stroke:none"
         d="m 768.629,407.09 c 4.199,3.211 6.297,7.34 6.297,12.379 v 7.57 c 0,0.699 -0.352,1.051 -1.043,1.051 h -15.129 c -6.297,0 -11.231,-1.192 -14.805,-3.57 -3.562,-2.379 -5.351,-5.739 -5.351,-10.09 0,-3.77 1.328,-6.739 3.984,-8.918 2.668,-2.172 6.231,-3.25 10.715,-3.25 6.016,0 11.133,1.609 15.332,4.828 z m 13.23,79.691 c 7.141,-3.152 12.707,-7.453 16.692,-12.91 3.992,-5.461 5.984,-11.551 5.984,-18.269 V 384.41 c 0,-0.711 -0.242,-1.289 -0.73,-1.781 -0.489,-0.5 -1.086,-0.738 -1.789,-0.738 h -24.571 c -0.703,0 -1.297,0.238 -1.785,0.738 -0.488,0.492 -0.734,1.07 -0.734,1.781 v 6.93 c 0,0.422 -0.137,0.691 -0.418,0.84 -0.285,0.14 -0.559,0 -0.84,-0.418 -5.879,-7.711 -15.332,-11.551 -28.352,-11.551 -10.918,0 -19.734,2.648 -26.453,7.969 -6.73,5.332 -10.09,13.172 -10.09,23.531 0,10.777 3.782,19.141 11.348,25.098 7.559,5.953 18.332,8.91 32.336,8.91 h 21.426 c 0.691,0 1.043,0.363 1.043,1.062 v 4.617 c 0,4.622 -1.395,8.223 -4.199,10.821 -2.801,2.59 -7,3.871 -12.598,3.871 -4.344,0 -7.949,-0.77 -10.82,-2.301 -2.871,-1.539 -4.727,-3.707 -5.567,-6.508 -0.418,-1.551 -1.328,-2.242 -2.722,-2.101 l -25.411,3.359 c -1.679,0.281 -2.453,0.902 -2.316,1.891 0.566,5.879 2.91,11.199 7.043,15.961 4.121,4.75 9.59,8.461 16.375,11.129 6.789,2.66 14.387,3.992 22.785,3.992 9.102,0 17.227,-1.582 24.363,-4.731" /><path
         id="path18"
         style="fill:#263873;fill-opacity:1;fill-rule:nonzero;stroke:none"
         d="m 879.508,407.09 c 4.199,3.211 6.297,7.34 6.297,12.379 v 7.57 c 0,0.699 -0.352,1.051 -1.043,1.051 h -15.129 c -6.297,0 -11.231,-1.192 -14.805,-3.57 -3.562,-2.379 -5.351,-5.739 -5.351,-10.09 0,-3.77 1.328,-6.739 3.984,-8.918 2.668,-2.172 6.23,-3.25 10.715,-3.25 6.015,0 11.133,1.609 15.332,4.828 z m 13.23,79.691 c 7.141,-3.152 12.707,-7.453 16.692,-12.91 3.992,-5.461 5.984,-11.551 5.984,-18.269 V 384.41 c 0,-0.711 -0.242,-1.289 -0.73,-1.781 -0.489,-0.5 -1.086,-0.738 -1.789,-0.738 h -24.571 c -0.703,0 -1.297,0.238 -1.785,0.738 -0.488,0.492 -0.734,1.07 -0.734,1.781 v 6.93 c 0,0.422 -0.137,0.691 -0.418,0.84 -0.285,0.14 -0.559,0 -0.84,-0.418 -5.879,-7.711 -15.332,-11.551 -28.352,-11.551 -10.918,0 -19.734,2.648 -26.453,7.969 -6.73,5.332 -10.09,13.172 -10.09,23.531 0,10.777 3.782,19.141 11.348,25.098 7.559,5.953 18.332,8.91 32.336,8.91 h 21.426 c 0.691,0 1.043,0.363 1.043,1.062 v 4.617 c 0,4.622 -1.395,8.223 -4.2,10.821 -2.8,2.59 -7,3.871 -12.597,3.871 -4.344,0 -7.949,-0.77 -10.82,-2.301 -2.872,-1.539 -4.727,-3.707 -5.567,-6.508 -0.418,-1.551 -1.328,-2.242 -2.723,-2.101 l -25.41,3.359 c -1.679,0.281 -2.453,0.902 -2.316,1.891 0.566,5.879 2.91,11.199 7.043,15.961 4.121,4.75 9.59,8.461 16.375,11.129 6.789,2.66 14.387,3.992 22.785,3.992 9.102,0 17.227,-1.582 24.363,-4.731" /><path
         id="path20"
         style="fill:#263873;fill-opacity:1;fill-rule:nonzero;stroke:none"
         d="m 1001.94,488.359 c 1.11,-0.57 1.53,-1.609 1.26,-3.148 l -4.415,-23.941 c -0.137,-1.68 -1.125,-2.18 -2.941,-1.469 -2.098,0.699 -4.551,1.051 -7.352,1.051 -1.113,0 -2.656,-0.153 -4.621,-0.422 -5.039,-0.418 -9.305,-2.27 -12.801,-5.571 -3.507,-3.289 -5.254,-7.66 -5.254,-13.121 V 384.41 c 0,-0.711 -0.246,-1.289 -0.734,-1.781 -0.496,-0.5 -1.082,-0.738 -1.785,-0.738 h -24.57 c -0.704,0 -1.301,0.238 -1.789,0.738 -0.489,0.492 -0.731,1.07 -0.731,1.781 v 102.899 c 0,0.703 0.242,1.293 0.731,1.781 0.488,0.488 1.085,0.742 1.789,0.742 h 24.57 c 0.703,0 1.289,-0.254 1.785,-0.742 0.488,-0.488 0.734,-1.078 0.734,-1.781 v -7.981 c 0,-0.418 0.137,-0.707 0.418,-0.84 0.286,-0.136 0.489,-0.066 0.637,0.211 5.731,8.403 13.438,12.602 23.094,12.602 5.039,0 9.035,-0.992 11.975,-2.942" /><path
         id="path22"
         style="fill:#263873;fill-opacity:1;fill-rule:nonzero;stroke:none"
         d="m 1085.51,435.648 c 0,9.653 -1.68,17.082 -5.04,22.262 -3.36,5.461 -8.33,8.18 -14.91,8.18 -6.16,0 -10.85,-2.719 -14.06,-8.18 -3.09,-5.32 -4.62,-12.672 -4.62,-22.051 0,-9.379 1.4,-16.449 4.2,-21.211 3.36,-6.027 8.25,-9.027 14.7,-9.027 6.85,0 11.97,3 15.33,9.027 2.94,5.321 4.4,12.313 4.4,21 z m 30.67,0.633 c 0,-9.66 -1.2,-18.133 -3.58,-25.41 -3.22,-9.519 -8.37,-17.012 -15.43,-22.473 -7.07,-5.457 -15.44,-8.187 -25.1,-8.187 -10.22,0 -18.27,3.84 -24.15,11.551 -0.28,0.269 -0.55,0.379 -0.84,0.308 -0.28,-0.07 -0.42,-0.308 -0.42,-0.73 v -6.93 c 0,-0.711 -0.24,-1.289 -0.73,-1.781 -0.5,-0.5 -1.08,-0.738 -1.79,-0.738 h -24.57 c -0.7,0 -1.29,0.238 -1.78,0.738 -0.49,0.492 -0.73,1.07 -0.73,1.781 v 141.957 c 0,0.703 0.24,1.289 0.73,1.789 0.49,0.489 1.08,0.731 1.78,0.731 h 24.57 c 0.71,0 1.29,-0.242 1.79,-0.731 0.49,-0.5 0.73,-1.086 0.73,-1.789 V 481.43 c 0,-0.418 0.14,-0.711 0.42,-0.84 0.29,-0.141 0.56,0 0.84,0.422 5.46,7 13.24,10.5 23.31,10.5 10.22,0 18.8,-2.621 25.73,-7.883 6.93,-5.25 12,-12.348 15.22,-21.309 2.66,-7.281 4,-15.961 4,-26.039" /><path
         id="path24"
         style="fill:#263873;fill-opacity:1;fill-rule:nonzero;stroke:none"
         d="m 1194.3,409.82 c 3.21,2.801 5.53,6.649 6.93,11.551 1.12,4.481 1.67,9.367 1.67,14.699 0,5.871 -0.55,10.852 -1.67,14.91 -1.55,4.75 -3.92,8.461 -7.14,11.129 -3.23,2.661 -7.14,3.981 -11.76,3.981 -4.77,0 -8.72,-1.32 -11.87,-3.981 -3.15,-2.668 -5.43,-6.379 -6.82,-11.129 -1.13,-3.359 -1.68,-8.332 -1.68,-14.91 0,-6.3 0.49,-11.211 1.47,-14.699 1.4,-4.902 3.74,-8.75 7.03,-11.551 3.29,-2.808 7.32,-4.199 12.07,-4.199 4.62,0 8.55,1.391 11.77,4.199 z m -42,-20.379 c -8.4,6.168 -14.14,14.571 -17.23,25.207 -1.95,6.582 -2.94,13.723 -2.94,21.422 0,8.258 0.99,15.68 2.94,22.262 3.23,10.348 9.04,18.477 17.43,24.359 8.4,5.879 18.49,8.821 30.25,8.821 11.47,0 21.28,-2.91 29.39,-8.723 8.13,-5.809 13.87,-13.891 17.23,-24.25 2.24,-7.008 3.36,-14.348 3.36,-22.051 0,-7.558 -0.99,-14.629 -2.94,-21.218 -3.09,-10.911 -8.79,-19.489 -17.12,-25.719 -8.33,-6.231 -18.37,-9.34 -30.14,-9.34 -11.75,0 -21.83,3.07 -30.23,9.23" /><path
         id="path26"
         style="fill:#263873;fill-opacity:1;fill-rule:nonzero;stroke:none"
         d="m 1317.56,488.359 c 1.13,-0.57 1.55,-1.609 1.26,-3.148 l -4.4,-23.941 c -0.15,-1.68 -1.12,-2.18 -2.94,-1.469 -2.1,0.699 -4.55,1.051 -7.35,1.051 -1.13,0 -2.67,-0.153 -4.62,-0.422 -5.04,-0.418 -9.32,-2.27 -12.82,-5.571 -3.49,-3.289 -5.24,-7.66 -5.24,-13.121 V 384.41 c 0,-0.711 -0.25,-1.289 -0.74,-1.781 -0.49,-0.5 -1.09,-0.738 -1.79,-0.738 h -24.56 c -0.7,0 -1.3,0.238 -1.79,0.738 -0.5,0.492 -0.74,1.07 -0.74,1.781 v 102.899 c 0,0.703 0.24,1.293 0.74,1.781 0.49,0.488 1.09,0.742 1.79,0.742 h 24.56 c 0.7,0 1.3,-0.254 1.79,-0.742 0.49,-0.488 0.74,-1.078 0.74,-1.781 v -7.981 c 0,-0.418 0.14,-0.707 0.42,-0.84 0.27,-0.136 0.49,-0.066 0.62,0.211 5.75,8.403 13.44,12.602 23.1,12.602 5.05,0 9.03,-0.992 11.97,-2.942" /><path
         id="path28"
         style="fill:#263873;fill-opacity:1;fill-rule:nonzero;stroke:none"
         d="m 1393.37,436.699 c 0,4.34 -0.13,7.699 -0.42,10.082 -0.28,2.379 -0.77,4.617 -1.46,6.719 -1.26,3.781 -3.36,6.82 -6.3,9.141 -2.94,2.3 -6.58,3.449 -10.93,3.449 -4.2,0 -7.76,-1.149 -10.7,-3.449 -2.94,-2.321 -5.12,-5.36 -6.51,-9.141 -1.97,-4.199 -2.94,-9.879 -2.94,-17.012 0,-7.847 0.84,-13.437 2.52,-16.797 1.26,-3.781 3.46,-6.832 6.61,-9.132 3.15,-2.321 6.89,-3.469 11.24,-3.469 4.47,0 8.19,1.148 11.13,3.469 2.94,2.3 4.96,5.281 6.08,8.91 1.13,4.211 1.68,9.953 1.68,17.23 z m 0.74,52.391 c 0.49,0.488 1.08,0.742 1.78,0.742 h 24.57 c 0.71,0 1.3,-0.254 1.79,-0.742 0.49,-0.488 0.73,-1.078 0.73,-1.781 v -95.77 c 0,-18.328 -5.28,-31.418 -15.85,-39.258 -10.57,-7.851 -24.19,-11.761 -40.85,-11.761 -4.9,0 -10.36,0.351 -16.37,1.039 -1.41,0.152 -2.1,1.062 -2.1,2.742 l 0.84,21.629 c 0,1.82 0.97,2.59 2.94,2.3 5.04,-0.839 9.65,-1.261 13.85,-1.261 8.96,0 15.86,1.972 20.69,5.89 4.83,3.922 7.24,10.219 7.24,18.903 0,0.418 -0.13,0.66 -0.42,0.726 -0.28,0.071 -0.55,-0.027 -0.84,-0.308 -5.32,-5.739 -13.08,-8.61 -23.31,-8.61 -9.1,0 -17.46,2.2 -25.08,6.621 -7.64,4.399 -13.06,11.508 -16.28,21.309 -2.1,6.441 -3.16,14.77 -3.16,24.988 0,10.91 1.26,19.813 3.78,26.672 2.95,8.539 7.91,15.399 14.91,20.578 7,5.184 15.13,7.774 24.37,7.774 10.77,0 19.03,-3.231 24.77,-9.66 0.29,-0.293 0.56,-0.383 0.84,-0.321 0.29,0.071 0.42,0.321 0.42,0.739 v 5.039 c 0,0.703 0.25,1.293 0.74,1.781" /><path
         id="path30"
         style="fill:#263873;fill-opacity:1;fill-rule:nonzero;stroke:none"
         d="m 1507.5,489.309 c 0.49,-0.5 0.75,-1.098 0.75,-1.789 v -19.95 c 0,-0.699 -0.26,-1.3 -0.75,-1.789 -0.48,-0.492 -1.08,-0.73 -1.77,-0.73 h -20.37 c -0.71,0 -1.06,-0.352 -1.06,-1.051 v -79.59 c 0,-0.711 -0.24,-1.289 -0.73,-1.781 -0.49,-0.5 -1.09,-0.738 -1.79,-0.738 h -24.57 c -0.7,0 -1.3,0.238 -1.79,0.738 -0.48,0.492 -0.73,1.07 -0.73,1.781 V 464 c 0,0.699 -0.35,1.051 -1.04,1.051 h -12.4 c -0.7,0 -1.29,0.238 -1.78,0.73 -0.49,0.489 -0.74,1.09 -0.74,1.789 v 19.95 c 0,0.691 0.25,1.289 0.74,1.789 0.49,0.492 1.08,0.73 1.78,0.73 h 12.4 c 0.69,0 1.04,0.34 1.04,1.051 v 4.609 c 0,8.692 1.33,15.446 4,20.278 2.65,4.824 6.96,8.253 12.91,10.285 5.94,2.031 14.18,2.91 24.67,2.625 h 7.98 c 0.71,0 1.29,-0.242 1.79,-0.731 0.49,-0.5 0.73,-1.086 0.73,-1.789 v -17.008 c 0,-0.711 -0.24,-1.3 -0.73,-1.789 -0.5,-0.492 -1.08,-0.73 -1.79,-0.73 h -6.93 c -4.9,-0.141 -8.29,-1.16 -10.18,-3.051 -1.89,-1.879 -2.84,-5.348 -2.84,-10.391 v -2.308 c 0,-0.711 0.35,-1.051 1.06,-1.051 h 20.37 c 0.69,0 1.29,-0.238 1.77,-0.73" /><path
         id="path32"
         style="fill:#263873;fill-opacity:1;fill-rule:nonzero;stroke:none"
         d="m 1578.38,409.82 c 3.23,2.801 5.53,6.649 6.94,11.551 1.11,4.481 1.68,9.367 1.68,14.699 0,5.871 -0.57,10.852 -1.68,14.91 -1.55,4.75 -3.93,8.461 -7.14,11.129 -3.22,2.661 -7.15,3.981 -11.77,3.981 -4.76,0 -8.71,-1.32 -11.86,-3.981 -3.15,-2.668 -5.42,-6.379 -6.82,-11.129 -1.12,-3.359 -1.69,-8.332 -1.69,-14.91 0,-6.3 0.5,-11.211 1.47,-14.699 1.4,-4.902 3.74,-8.75 7.04,-11.551 3.29,-2.808 7.31,-4.199 12.08,-4.199 4.61,0 8.53,1.391 11.75,4.199 z m -42,-20.379 c -8.4,6.168 -14.14,14.571 -17.22,25.207 -1.96,6.582 -2.94,13.723 -2.94,21.422 0,8.258 0.98,15.68 2.94,22.262 3.23,10.348 9.04,18.477 17.44,24.359 8.39,5.879 18.47,8.821 30.23,8.821 11.48,0 21.28,-2.91 29.4,-8.723 8.12,-5.809 13.86,-13.891 17.22,-24.25 2.24,-7.008 3.36,-14.348 3.36,-22.051 0,-7.558 -0.98,-14.629 -2.94,-21.218 -3.07,-10.911 -8.79,-19.489 -17.11,-25.719 -8.33,-6.231 -18.38,-9.34 -30.13,-9.34 -11.76,0 -21.85,3.07 -30.25,9.23" /><path
         id="path34"
         style="fill:#263873;fill-opacity:1;fill-rule:nonzero;stroke:none"
         d="m 1719.29,481.219 c 6.86,-6.86 10.29,-16.168 10.29,-27.93 V 384.41 c 0,-0.711 -0.24,-1.289 -0.74,-1.781 -0.49,-0.5 -1.08,-0.738 -1.78,-0.738 h -24.57 c -0.7,0 -1.29,0.238 -1.78,0.738 -0.49,0.492 -0.74,1.07 -0.74,1.781 v 62.789 c 0,5.59 -1.58,10.141 -4.72,13.653 -3.16,3.5 -7.32,5.238 -12.5,5.238 -5.18,0 -9.35,-1.738 -12.49,-5.238 -3.16,-3.512 -4.73,-8.063 -4.73,-13.653 V 384.41 c 0,-0.711 -0.24,-1.289 -0.73,-1.781 -0.5,-0.5 -1.08,-0.738 -1.79,-0.738 h -24.57 c -0.7,0 -1.3,0.238 -1.79,0.738 -0.48,0.492 -0.73,1.07 -0.73,1.781 v 102.899 c 0,0.703 0.25,1.293 0.73,1.781 0.49,0.488 1.09,0.742 1.79,0.742 h 24.57 c 0.71,0 1.29,-0.254 1.79,-0.742 0.49,-0.488 0.73,-1.078 0.73,-1.781 v -7.348 c 0,-0.422 0.14,-0.699 0.42,-0.84 0.28,-0.141 0.49,-0.082 0.64,0.207 5.73,8.113 14.27,12.184 25.61,12.184 11.2,0 20.23,-3.434 27.09,-10.293" /><path
         id="path36"
         style="fill:#263873;fill-opacity:1;fill-rule:nonzero;stroke:none"
         d="m 1816.95,435.859 c 0,9.379 -1.55,16.731 -4.62,22.051 -3.22,5.461 -7.91,8.18 -14.07,8.18 -6.59,0 -11.56,-2.719 -14.92,-8.18 -3.49,-5.461 -5.25,-12.879 -5.25,-22.262 0,-8.398 1.47,-15.398 4.41,-21 3.5,-6.027 8.69,-9.027 15.54,-9.027 6.3,0 11.2,3 14.71,9.027 2.79,5.184 4.2,12.25 4.2,21.211 z m 0.94,92.297 c 0.49,0.489 1.08,0.731 1.78,0.731 h 24.57 c 0.71,0 1.3,-0.242 1.79,-0.731 0.49,-0.5 0.73,-1.086 0.73,-1.789 V 384.41 c 0,-0.711 -0.24,-1.289 -0.73,-1.781 -0.49,-0.5 -1.08,-0.738 -1.79,-0.738 h -24.57 c -0.7,0 -1.29,0.238 -1.78,0.738 -0.49,0.492 -0.74,1.07 -0.74,1.781 v 6.93 c 0,0.422 -0.13,0.66 -0.42,0.73 -0.28,0.071 -0.55,-0.039 -0.84,-0.308 -5.88,-7.711 -13.92,-11.551 -24.15,-11.551 -9.79,0 -18.23,2.73 -25.3,8.187 -7.07,5.461 -12.15,12.954 -15.22,22.473 -2.39,7.277 -3.58,15.75 -3.58,25.41 0,9.938 1.26,18.61 3.78,26.039 3.22,8.961 8.3,16.059 15.23,21.309 6.93,5.262 15.5,7.883 25.73,7.883 10.08,0 17.92,-3.5 23.51,-10.5 0.29,-0.422 0.56,-0.563 0.84,-0.422 0.29,0.129 0.42,0.422 0.42,0.84 v 44.937 c 0,0.703 0.25,1.289 0.74,1.789" /><path
         id="path38"
         style="fill:#263873;fill-opacity:1;fill-rule:nonzero;stroke:none"
         d="m 1887.5,384.41 c -7,2.649 -12.43,6.36 -16.28,11.129 -3.84,4.75 -5.77,10.141 -5.77,16.172 v 2.098 c 0,0.691 0.25,1.293 0.74,1.793 0.48,0.488 1.08,0.73 1.78,0.73 h 23.31 c 0.7,0 1.29,-0.242 1.79,-0.73 0.49,-0.5 0.73,-1.102 0.73,-1.793 v -0.219 c 0,-3.07 1.71,-5.699 5.15,-7.871 3.43,-2.16 7.73,-3.25 12.91,-3.25 4.76,0 8.61,0.941 11.55,2.832 2.94,1.89 4.42,4.23 4.42,7.039 0,2.512 -1.26,4.41 -3.78,5.672 -2.53,1.258 -6.66,2.59 -12.4,3.988 -6.58,1.68 -11.75,3.281 -15.54,4.828 -8.96,3.07 -16.1,6.852 -21.42,11.344 -5.32,4.476 -7.98,10.918 -7.98,19.316 0,10.352 4.03,18.594 12.07,24.672 8.06,6.09 18.73,9.141 32.03,9.141 8.96,0 16.8,-1.442 23.52,-4.313 6.72,-2.867 11.93,-6.886 15.64,-12.066 3.72,-5.184 5.57,-11.063 5.57,-17.641 0,-0.711 -0.24,-1.301 -0.73,-1.793 -0.5,-0.488 -1.09,-0.726 -1.79,-0.726 h -22.47 c -0.7,0 -1.3,0.238 -1.79,0.726 -0.48,0.492 -0.73,1.082 -0.73,1.793 0,3.071 -1.57,5.668 -4.72,7.77 -3.15,2.097 -7.32,3.14 -12.5,3.14 -4.61,0 -8.39,-0.839 -11.33,-2.519 -2.95,-1.672 -4.42,-3.981 -4.42,-6.922 0,-2.801 1.44,-4.898 4.31,-6.301 2.86,-1.398 7.67,-2.867 14.38,-4.41 1.54,-0.418 3.29,-0.879 5.25,-1.367 1.96,-0.492 4.06,-1.082 6.31,-1.793 9.93,-2.938 17.77,-6.707 23.51,-11.328 5.74,-4.621 8.62,-11.34 8.62,-20.16 0,-10.36 -4.11,-18.45 -12.29,-24.262 -8.19,-5.809 -19.22,-8.707 -33.08,-8.707 -9.38,0 -17.57,1.328 -24.57,3.988" /><path
         id="path40"
         style="fill:#263873;fill-opacity:1;fill-rule:nonzero;stroke:none"
         d="m 562.719,194.621 c -6.094,2.52 -10.781,5.879 -14.071,10.078 -3.293,4.199 -4.933,8.891 -4.933,14.071 v 2.519 c 0,1.402 0.703,2.102 2.101,2.102 h 10.079 c 1.394,0 2.097,-0.7 2.097,-2.102 v -1.68 c 0,-4.621 2.422,-8.648 7.246,-12.078 4.836,-3.429 10.891,-5.152 18.164,-5.152 7.278,0 13.164,1.652 17.649,4.953 4.472,3.277 6.719,7.449 6.719,12.488 0,3.489 -1.165,6.36 -3.469,8.61 -2.313,2.242 -5.039,3.992 -8.192,5.25 -3.144,1.261 -8.019,2.859 -14.589,4.832 -7.844,2.226 -14.29,4.476 -19.329,6.718 -5.039,2.231 -9.277,5.36 -12.703,9.34 -3.429,4 -5.148,9.059 -5.148,15.231 0,8.961 3.508,16.097 10.508,21.418 6.992,5.312 16.242,7.98 27.715,7.98 7.695,0 14.523,-1.258 20.48,-3.777 5.945,-2.524 10.527,-5.992 13.75,-10.402 3.223,-4.399 4.832,-9.348 4.832,-14.801 v -0.629 c 0,-1.41 -0.703,-2.102 -2.098,-2.102 h -9.875 c -1.394,0 -2.097,0.692 -2.097,2.102 v 0.629 c 0,4.75 -2.278,8.75 -6.828,11.972 -4.551,3.219 -10.672,4.829 -18.368,4.829 -7.14,0 -12.882,-1.442 -17.226,-4.301 -4.336,-2.879 -6.504,-6.828 -6.504,-11.867 0,-4.762 2.098,-8.403 6.297,-10.922 4.199,-2.532 10.715,-5.051 19.531,-7.571 8.117,-2.379 14.699,-4.609 19.738,-6.711 5.039,-2.097 9.375,-5.148 13.016,-9.136 3.644,-3.992 5.461,-9.203 5.461,-15.641 0,-9.101 -3.567,-16.391 -10.703,-21.851 -7.141,-5.45 -16.594,-8.18 -28.352,-8.18 -7.84,0 -14.804,1.262 -20.898,3.781" /><path
         id="path42"
         style="fill:#263873;fill-opacity:1;fill-rule:nonzero;stroke:none"
         d="m 702.055,209.211 c 6.015,4.129 9.023,9.699 9.023,16.699 v 16.379 c 0,0.551 -0.281,0.84 -0.84,0.84 h -22.05 c -9.239,0 -16.661,-1.891 -22.254,-5.668 -5.606,-3.781 -8.399,-9.031 -8.399,-15.75 0,-6.16 2.129,-10.82 6.406,-13.961 4.266,-3.16 9.832,-4.73 16.688,-4.73 8.262,0 15.402,2.058 21.426,6.191 z m 13.644,80.961 c 6.864,-6.442 10.293,-14.981 10.293,-25.621 v -70.563 c 0,-1.398 -0.703,-2.097 -2.101,-2.097 H 713.18 c -1.399,0 -2.102,0.699 -2.102,2.097 v 8.614 c 0,0.277 -0.105,0.488 -0.312,0.617 -0.215,0.152 -0.457,0.082 -0.731,-0.199 -3.508,-4.2 -8.058,-7.379 -13.652,-9.551 -5.606,-2.18 -11.836,-3.258 -18.692,-3.258 -9.941,0 -18.273,2.519 -24.992,7.551 -6.719,5.039 -10.078,12.75 -10.078,23.109 0,10.5 3.809,18.789 11.445,24.879 7.629,6.102 18.235,9.129 31.817,9.129 h 24.355 c 0.559,0 0.84,0.293 0.84,0.84 v 7.992 c 0,7.141 -1.992,12.777 -5.984,16.91 -3.985,4.117 -10.188,6.188 -18.586,6.188 -6.719,0 -12.176,-1.297 -16.375,-3.887 -4.199,-2.59 -6.797,-6.192 -7.774,-10.813 -0.421,-1.41 -1.261,-2.027 -2.519,-1.89 l -11.34,1.472 c -1.543,0.27 -2.168,0.84 -1.883,1.68 1.113,7.84 5.313,14.211 12.598,19.109 7.273,4.891 16.375,7.352 27.293,7.352 12.609,0 22.336,-3.23 29.191,-9.66" /><path
         id="path44"
         style="fill:#263873;fill-opacity:1;fill-rule:nonzero;stroke:none"
         d="m 827.945,289.75 c 6.649,-6.578 9.981,-15.398 9.981,-26.461 v -69.301 c 0,-1.398 -0.703,-2.097 -2.102,-2.097 h -10.711 c -1.406,0 -2.101,0.699 -2.101,2.097 v 66.364 c 0,7.699 -2.344,14 -7.039,18.898 -4.688,4.898 -10.743,7.352 -18.164,7.352 -7.696,0 -13.926,-2.383 -18.692,-7.153 -4.758,-4.75 -7.14,-10.98 -7.14,-18.679 v -66.782 c 0,-1.398 -0.704,-2.097 -2.098,-2.097 h -10.703 c -1.406,0 -2.102,0.699 -2.102,2.097 v 102.063 c 0,1.39 0.696,2.097 2.102,2.097 h 10.703 c 1.394,0 2.098,-0.707 2.098,-2.097 v -9.031 c 0,-0.282 0.109,-0.5 0.324,-0.629 0.203,-0.141 0.379,-0.071 0.515,0.211 6.164,8.668 15.618,13.019 28.352,13.019 11.199,0 20.125,-3.289 26.777,-9.871" /><path
         id="path46"
         style="fill:#263873;fill-opacity:1;fill-rule:nonzero;stroke:none"
         d="m 890.941,281.461 c -4.55,-3.582 -7.527,-8.371 -8.925,-14.391 -0.84,-2.941 -1.395,-7.699 -1.68,-14.289 0,-0.551 0.285,-0.84 0.84,-0.84 h 54.394 c 0.559,0 0.84,0.289 0.84,0.84 -0.281,6.309 -0.703,10.789 -1.258,13.449 -1.543,6.301 -4.66,11.301 -9.347,15.008 -4.696,3.711 -10.606,5.571 -17.742,5.571 -6.868,0 -12.571,-1.789 -17.122,-5.348 z m 60.168,-33.289 v -6.723 c 0,-1.398 -0.703,-2.097 -2.101,-2.097 h -67.832 c -0.555,0 -0.84,-0.293 -0.84,-0.84 0.285,-7.703 0.703,-12.672 1.262,-14.922 1.543,-6.289 4.832,-11.258 9.871,-14.899 5.039,-3.64 11.476,-5.472 19.316,-5.472 5.879,0 11.067,1.34 15.547,4 4.473,2.652 7.981,6.429 10.5,11.34 0.84,1.261 1.816,1.543 2.938,0.839 l 8.195,-4.828 c 1.113,-0.699 1.394,-1.679 0.84,-2.941 -3.508,-6.731 -8.762,-12.008 -15.754,-15.859 -7,-3.84 -15.047,-5.77 -24.149,-5.77 -9.941,0.141 -18.273,2.52 -24.992,7.141 -6.719,4.621 -11.551,11.05 -14.492,19.32 -2.52,6.719 -3.777,16.379 -3.777,28.98 0,5.879 0.105,10.668 0.312,14.391 0.215,3.699 0.742,7.027 1.582,9.969 2.371,9.097 7.168,16.379 14.383,21.84 7.207,5.461 15.918,8.191 26.145,8.191 12.734,0 22.539,-3.23 29.394,-9.66 6.863,-6.442 11.133,-15.543 12.813,-27.301 0.554,-3.922 0.839,-8.832 0.839,-14.699" /><path
         id="path48"
         style="fill:#263873;fill-opacity:1;fill-rule:nonzero;stroke:none"
         d="m 1035.53,296.469 c 1.11,-0.559 1.53,-1.469 1.26,-2.731 l -2.31,-10.289 c -0.42,-1.398 -1.33,-1.82 -2.73,-1.258 -2.38,0.981 -5.11,1.457 -8.19,1.457 l -2.74,-0.199 c -7.27,-0.277 -13.3,-2.98 -18.05,-8.09 -4.766,-5.097 -7.141,-11.578 -7.141,-19.418 v -61.953 c 0,-1.398 -0.703,-2.097 -2.098,-2.097 h -10.715 c -1.394,0 -2.097,0.699 -2.097,2.097 v 102.063 c 0,1.39 0.703,2.097 2.097,2.097 h 10.715 c 1.395,0 2.098,-0.707 2.098,-2.097 V 283.23 c 0,-0.421 0.109,-0.66 0.312,-0.73 0.215,-0.07 0.383,0.039 0.528,0.309 2.941,5.191 6.681,9.211 11.231,12.082 4.55,2.871 9.83,4.308 15.86,4.308 4.62,0 8.61,-0.918 11.97,-2.73" /><path
         id="path50"
         style="fill:#263873;fill-opacity:1;fill-rule:nonzero;stroke:none"
         d="m 1059.26,194.199 v 102.063 c 0,1.398 0.7,2.097 2.1,2.097 h 10.7 c 1.4,0 2.1,-0.699 2.1,-2.097 V 194.199 c 0,-1.41 -0.7,-2.097 -2.1,-2.097 h -10.7 c -1.4,0 -2.1,0.687 -2.1,2.097 z m -0.42,126.633 c -2.24,2.238 -3.36,5.039 -3.36,8.398 0,3.5 1.12,6.329 3.36,8.508 2.24,2.16 5.04,3.25 8.4,3.25 3.36,0 6.15,-1.09 8.4,-3.25 2.24,-2.179 3.36,-5.008 3.36,-8.508 0,-3.359 -1.12,-6.16 -3.36,-8.398 -2.25,-2.242 -5.04,-3.363 -8.4,-3.363 -3.36,0 -6.16,1.121 -8.4,3.363" /><path
         id="path52"
         style="fill:#263873;fill-opacity:1;fill-rule:nonzero;stroke:none"
         d="m 1181.58,289.75 c 6.65,-6.578 9.98,-15.398 9.98,-26.461 v -69.301 c 0,-1.398 -0.71,-2.097 -2.1,-2.097 h -10.72 c -1.4,0 -2.1,0.699 -2.1,2.097 v 66.364 c 0,7.699 -2.34,14 -7.04,18.898 -4.68,4.898 -10.74,7.352 -18.16,7.352 -7.7,0 -13.93,-2.383 -18.69,-7.153 -4.76,-4.75 -7.14,-10.98 -7.14,-18.679 v -66.782 c 0,-1.398 -0.7,-2.097 -2.1,-2.097 h -10.7 c -1.41,0 -2.1,0.699 -2.1,2.097 v 102.063 c 0,1.39 0.69,2.097 2.1,2.097 h 10.7 c 1.4,0 2.1,-0.707 2.1,-2.097 v -9.031 c 0,-0.282 0.11,-0.5 0.32,-0.629 0.21,-0.141 0.38,-0.071 0.52,0.211 6.16,8.668 15.61,13.019 28.35,13.019 11.2,0 20.13,-3.289 26.78,-9.871" /><path
         id="path54"
         style="fill:#263873;fill-opacity:1;fill-rule:nonzero;stroke:none"
         d="m 1289.2,231.789 c 0.14,3.07 0.21,7.563 0.21,13.441 0,7.129 -0.07,11.93 -0.21,14.379 -0.14,2.45 -0.49,4.731 -1.05,6.832 -1.12,5.879 -3.89,10.739 -8.29,14.598 -4.42,3.84 -9.98,5.77 -16.7,5.77 -6.58,0 -12.15,-1.887 -16.69,-5.68 -4.55,-3.777 -7.74,-8.68 -9.56,-14.688 -1.4,-4.492 -2.1,-11.48 -2.1,-21 0,-10.222 0.7,-17.293 2.1,-21.211 1.4,-5.878 4.44,-10.75 9.14,-14.601 4.69,-3.848 10.39,-5.77 17.11,-5.77 6.86,0 12.5,1.891 16.9,5.672 4.42,3.778 7.18,8.61 8.3,14.481 0.42,2.097 0.7,4.699 0.84,7.777 z m 2.31,66.359 h 10.71 c 1.4,0 2.1,-0.707 2.1,-2.097 v -100.59 c 0,-15.68 -4.51,-27.16 -13.54,-34.441 -9.04,-7.282 -21.46,-10.918 -37.28,-10.918 -3.22,0 -5.66,0.07 -7.35,0.199 -1.4,0.148 -2.1,0.918 -2.1,2.32 l 0.42,9.66 c 0,0.699 0.21,1.231 0.63,1.571 0.42,0.347 0.91,0.457 1.48,0.32 l 5.66,-0.211 c 13.02,0 22.47,2.551 28.35,7.66 5.88,5.117 8.82,13.211 8.82,24.258 v 7.762 c 0,0.289 -0.1,0.461 -0.31,0.531 -0.21,0.066 -0.46,-0.031 -0.74,-0.313 -6.44,-8.398 -15.61,-12.597 -27.51,-12.597 -9.1,0 -17.18,2.437 -24.25,7.34 -7.07,4.91 -11.8,11.839 -14.17,20.796 -1.68,5.743 -2.53,14.282 -2.53,25.622 0,6.152 0.17,11.339 0.52,15.539 0.36,4.203 1.09,7.98 2.21,11.339 2.52,8.391 7.07,15.153 13.65,20.262 6.58,5.121 14.5,7.672 23.73,7.672 12.47,0 21.91,-4.141 28.35,-12.391 0.28,-0.281 0.53,-0.351 0.74,-0.211 0.21,0.129 0.31,0.352 0.31,0.629 v 8.192 c 0,1.39 0.7,2.097 2.1,2.097" /><path
         id="path56"
         style="fill:#263873;fill-opacity:1;fill-rule:nonzero;stroke:none"
         d="m 1348.73,194.621 c -6.09,2.52 -10.78,5.879 -14.07,10.078 -3.29,4.199 -4.93,8.891 -4.93,14.071 v 2.519 c 0,1.402 0.7,2.102 2.1,2.102 h 10.08 c 1.4,0 2.1,-0.7 2.1,-2.102 v -1.68 c 0,-4.621 2.42,-8.648 7.24,-12.078 4.84,-3.429 10.89,-5.152 18.17,-5.152 7.27,0 13.16,1.652 17.64,4.953 4.48,3.277 6.72,7.449 6.72,12.488 0,3.489 -1.16,6.36 -3.46,8.61 -2.32,2.242 -5.04,3.992 -8.2,5.25 -3.14,1.261 -8.01,2.859 -14.59,4.832 -7.84,2.226 -14.28,4.476 -19.32,6.718 -5.04,2.231 -9.28,5.36 -12.71,9.34 -3.43,4 -5.14,9.059 -5.14,15.231 0,8.961 3.5,16.097 10.5,21.418 7,5.312 16.24,7.98 27.72,7.98 7.69,0 14.52,-1.258 20.48,-3.777 5.94,-2.524 10.52,-5.992 13.75,-10.402 3.22,-4.399 4.83,-9.348 4.83,-14.801 v -0.629 c 0,-1.41 -0.7,-2.102 -2.1,-2.102 h -9.87 c -1.4,0 -2.1,0.692 -2.1,2.102 v 0.629 c 0,4.75 -2.28,8.75 -6.83,11.972 -4.55,3.219 -10.67,4.829 -18.37,4.829 -7.14,0 -12.88,-1.442 -17.22,-4.301 -4.34,-2.879 -6.51,-6.828 -6.51,-11.867 0,-4.762 2.1,-8.403 6.3,-10.922 4.2,-2.532 10.71,-5.051 19.53,-7.571 8.12,-2.379 14.7,-4.609 19.74,-6.711 5.04,-2.097 9.37,-5.148 13.02,-9.136 3.64,-3.992 5.46,-9.203 5.46,-15.641 0,-9.101 -3.57,-16.391 -10.71,-21.851 -7.14,-5.45 -16.59,-8.18 -28.35,-8.18 -7.84,0 -14.8,1.262 -20.9,3.781" /><path
         id="path58"
         style="fill:#263873;fill-opacity:1;fill-rule:nonzero;stroke:none"
         d="M 548.754,3.98828 V 146.789 c 0,1.391 0.703,2.102 2.101,2.102 h 10.711 c 1.399,0 2.102,-0.711 2.102,-2.102 V 60.8984 c 0,-0.2773 0.105,-0.5 0.312,-0.6367 0.215,-0.1328 0.45,-0.0625 0.731,0.2188 l 44.523,46.6215 c 0.704,0.687 1.543,1.046 2.52,1.046 h 12.605 c 0.84,0 1.399,-0.289 1.68,-0.839 0.274,-0.559 0.137,-1.129 -0.418,-1.68 L 598.734,75.8086 c -0.281,-0.2773 -0.351,-0.6289 -0.203,-1.0469 L 630.66,4.41016 630.863,3.57031 c 0,-1.1289 -0.625,-1.67968 -1.883,-1.67968 h -11.347 c -1.125,0 -1.887,0.55078 -2.305,1.67968 l -27.09,61.30859 c -0.285,0.5703 -0.636,0.6406 -1.054,0.2227 L 564.086,40.7305 c -0.281,-0.2696 -0.418,-0.6211 -0.418,-1.0391 V 3.98828 c 0,-1.39844 -0.703,-2.09765 -2.102,-2.09765 h -10.711 c -1.398,0 -2.101,0.69921 -2.101,2.09765" /><path
         id="path60"
         style="fill:#263873;fill-opacity:1;fill-rule:nonzero;stroke:none"
         d="m 708.773,106.469 c 1.125,-0.559 1.543,-1.469 1.262,-2.731 L 707.73,93.4492 c -0.421,-1.3984 -1.339,-1.8203 -2.734,-1.2578 -2.383,0.9805 -5.109,1.457 -8.195,1.457 l -2.723,-0.1992 c -7.285,-0.2773 -13.301,-2.9804 -18.066,-8.0898 -4.758,-5.0977 -7.141,-11.5781 -7.141,-19.418 V 3.98828 c 0,-1.39844 -0.703,-2.09765 -2.098,-2.09765 H 656.07 c -1.406,0 -2.101,0.69921 -2.101,2.09765 V 106.051 c 0,1.39 0.695,2.097 2.101,2.097 h 10.703 c 1.395,0 2.098,-0.707 2.098,-2.097 V 93.2305 c 0,-0.4219 0.109,-0.6602 0.324,-0.7305 0.203,-0.0703 0.379,0.0391 0.516,0.3086 2.941,5.1914 6.691,9.2114 11.242,12.0824 4.551,2.871 9.832,4.308 15.848,4.308 4.621,0 8.613,-0.918 11.972,-2.73" /><path
         id="path62"
         style="fill:#263873;fill-opacity:1;fill-rule:nonzero;stroke:none"
         d="m 751.508,91.4609 c -4.551,-3.582 -7.528,-8.3711 -8.926,-14.3906 -0.84,-2.9414 -1.394,-7.6992 -1.68,-14.289 0,-0.5508 0.286,-0.8399 0.84,-0.8399 h 54.395 c 0.558,0 0.84,0.2891 0.84,0.8399 -0.282,6.3085 -0.704,10.789 -1.258,13.4492 -1.543,6.3008 -4.66,11.3008 -9.348,15.0078 -4.695,3.7109 -10.605,5.5703 -17.742,5.5703 -6.867,0 -12.57,-1.7891 -17.121,-5.3477 z m 60.168,-33.289 v -6.7227 c 0,-1.3984 -0.703,-2.0976 -2.102,-2.0976 h -67.832 c -0.554,0 -0.84,-0.293 -0.84,-0.8399 0.286,-7.7031 0.703,-12.6719 1.262,-14.9219 1.543,-6.289 4.832,-11.2578 9.871,-14.8984 5.039,-3.6406 11.477,-5.4726 19.317,-5.4726 5.878,0 11.066,1.3398 15.546,4 4.473,2.6523 7.981,6.4296 10.5,11.3398 0.84,1.2617 1.817,1.543 2.938,0.8398 l 8.195,-4.8281 c 1.114,-0.6992 1.395,-1.6797 0.84,-2.9414 C 805.863,14.8984 800.609,9.62109 793.617,5.76953 786.617,1.92969 778.57,0 769.469,0 c -9.942,0.140625 -18.274,2.51953 -24.992,7.14063 -6.719,4.62107 -11.551,11.05077 -14.493,19.32027 -2.519,6.7188 -3.777,16.3789 -3.777,28.9805 0,5.8789 0.106,10.668 0.313,14.3906 0.214,3.6993 0.742,7.0274 1.582,9.9688 2.371,9.0976 7.168,16.3789 14.382,21.8402 7.207,5.461 15.918,8.191 26.145,8.191 12.734,0 22.539,-3.23 29.394,-9.66 6.864,-6.4415 11.133,-15.5431 12.813,-27.3009 0.555,-3.9219 0.84,-8.832 0.84,-14.6992" /><path
         id="path64"
         style="fill:#263873;fill-opacity:1;fill-rule:nonzero;stroke:none"
         d="m 906.176,39.2695 c 0.558,3.7813 0.84,9.0313 0.84,15.75 0,6.7188 -0.282,12 -0.84,15.8516 -0.567,3.8477 -1.543,7.25 -2.938,10.1875 -1.679,4.75 -4.453,8.5703 -8.3,11.4414 -3.848,2.8711 -8.438,4.3086 -13.75,4.3086 -5.606,0 -10.43,-1.3984 -14.493,-4.1992 -4.062,-2.8008 -7.004,-6.5196 -8.82,-11.1289 -1.68,-3.0821 -2.91,-6.5508 -3.672,-10.3907 -0.769,-3.8593 -1.16,-9.2109 -1.16,-16.0703 0,-6.5781 0.281,-11.7304 0.84,-15.4375 0.555,-3.7109 1.543,-7.0312 2.937,-9.9726 1.68,-5.0391 4.66,-9.0313 8.926,-11.9688 4.27,-2.9414 9.348,-4.4218 15.227,-4.4218 5.605,0 10.293,1.4804 14.07,4.4218 3.781,2.9375 6.582,6.8477 8.398,11.7578 1.262,2.8008 2.168,6.0899 2.735,9.8711 z m 3.144,109.6215 h 10.715 c 1.395,0 2.098,-0.711 2.098,-2.102 V 3.98828 c 0,-1.39844 -0.703,-2.09765 -2.098,-2.09765 H 909.32 c -1.394,0 -2.097,0.69921 -2.097,2.09765 v 8.81252 c 0,0.289 -0.098,0.4609 -0.313,0.5312 -0.207,0.0664 -0.461,-0.0312 -0.734,-0.3125 -3.086,-4.05856 -6.895,-7.21872 -11.446,-9.44919 -4.55,-2.24218 -9.628,-3.359372 -15.222,-3.359372 -9.805,0 -18.028,2.519532 -24.68,7.550782 -6.648,5.03908 -11.23,11.91018 -13.75,20.58988 -1.961,6.2968 -2.937,15.1875 -2.937,26.6679 0,11.6211 0.839,20.2891 2.519,26.0391 2.52,8.9609 7.137,15.9922 13.856,21.1014 6.718,5.121 15.05,7.672 24.992,7.672 5.457,0 10.496,-1.094 15.117,-3.262 4.617,-2.16 8.465,-5.281 11.551,-9.3395 0.273,-0.2891 0.527,-0.3907 0.734,-0.3086 0.215,0.0586 0.313,0.2383 0.313,0.5195 v 49.3476 c 0,1.391 0.703,2.102 2.097,2.102" /><path
         id="path66"
         style="fill:#263873;fill-opacity:1;fill-rule:nonzero;stroke:none"
         d="M 958.043,4.19922 V 106.262 c 0,1.398 0.703,2.097 2.098,2.097 h 10.714 c 1.395,0 2.098,-0.699 2.098,-2.097 V 4.19922 c 0,-1.41016 -0.703,-2.09766 -2.098,-2.09766 h -10.714 c -1.395,0 -2.098,0.6875 -2.098,2.09766 z M 957.621,130.832 c -2.234,2.238 -3.359,5.039 -3.359,8.398 0,3.5 1.125,6.329 3.359,8.508 2.238,2.16 5.039,3.25 8.399,3.25 3.359,0 6.164,-1.09 8.398,-3.25 2.246,-2.179 3.359,-5.008 3.359,-8.508 0,-3.359 -1.113,-6.16 -3.359,-8.398 -2.234,-2.242 -5.039,-3.363 -8.398,-3.363 -3.36,0 -6.161,1.121 -8.399,3.363" /><path
         id="path68"
         style="fill:#263873;fill-opacity:1;fill-rule:nonzero;stroke:none"
         d="m 1031.64,91.4609 c -4.55,-3.582 -7.52,-8.3711 -8.92,-14.3906 -0.84,-2.9414 -1.41,-7.6992 -1.68,-14.289 0,-0.5508 0.27,-0.8399 0.84,-0.8399 h 54.38 c 0.56,0 0.84,0.2891 0.84,0.8399 -0.28,6.3085 -0.7,10.789 -1.26,13.4492 -1.54,6.3008 -4.64,11.3008 -9.34,15.0078 -4.69,3.7109 -10.61,5.5703 -17.75,5.5703 -6.85,0 -12.56,-1.7891 -17.11,-5.3477 z m 60.17,-33.289 v -6.7227 c 0,-1.3984 -0.7,-2.0976 -2.1,-2.0976 h -67.83 c -0.57,0 -0.84,-0.293 -0.84,-0.8399 0.27,-7.7031 0.69,-12.6719 1.26,-14.9219 1.53,-6.289 4.82,-11.2578 9.87,-14.8984 5.04,-3.6406 11.48,-5.4726 19.32,-5.4726 5.88,0 11.05,1.3398 15.54,4 4.48,2.6523 7.97,6.4296 10.49,11.3398 0.84,1.2617 1.83,1.543 2.94,0.8398 l 8.2,-4.8281 c 1.12,-0.6992 1.39,-1.6797 0.84,-2.9414 C 1086,14.8984 1080.75,9.62109 1073.74,5.76953 1066.74,1.92969 1058.7,0 1049.59,0 c -9.94,0.140625 -18.27,2.51953 -24.99,7.14063 -6.71,4.62107 -11.54,11.05077 -14.48,19.32027 -2.52,6.7188 -3.78,16.3789 -3.78,28.9805 0,5.8789 0.1,10.668 0.31,14.3906 0.21,3.6993 0.74,7.0274 1.58,9.9688 2.38,9.0976 7.17,16.3789 14.38,21.8402 7.21,5.461 15.93,8.191 26.14,8.191 12.75,0 22.54,-3.23 29.41,-9.66 6.85,-6.4415 11.13,-15.5431 12.81,-27.3009 0.56,-3.9219 0.84,-8.832 0.84,-14.6992" /><path
         id="path70"
         style="fill:#263873;fill-opacity:1;fill-rule:nonzero;stroke:none"
         d="m 1165.51,95.7617 h -23.73 c -0.55,0 -0.84,-0.2812 -0.84,-0.8398 V 32.9688 c 0,-6.7188 1.51,-11.4493 4.52,-14.1797 3.01,-2.7188 7.74,-4.0899 14.17,-4.0899 h 5.26 c 1.39,0 2.1,-0.6992 2.1,-2.0976 V 3.98828 c 0,-1.39844 -0.71,-2.09765 -2.1,-2.09765 -1.68,-0.14063 -4.28,-0.21094 -7.78,-0.21094 -10.07,0 -17.7,1.89062 -22.89,5.66015 -5.17,3.78126 -7.76,10.78906 -7.76,21.01176 v 66.5703 c 0,0.5586 -0.28,0.8398 -0.84,0.8398 h -12.81 c -1.41,0 -2.1,0.6992 -2.1,2.0977 v 8.1916 c 0,1.39 0.69,2.097 2.1,2.097 h 12.81 c 0.56,0 0.84,0.282 0.84,0.84 v 24.364 c 0,1.398 0.69,2.097 2.1,2.097 h 10.28 c 1.41,0 2.1,-0.699 2.1,-2.097 v -24.364 c 0,-0.558 0.29,-0.84 0.84,-0.84 h 23.73 c 1.41,0 2.1,-0.707 2.1,-2.097 v -8.1916 c 0,-1.3985 -0.69,-2.0977 -2.1,-2.0977" /><path
         id="path72"
         style="fill:#263873;fill-opacity:1;fill-rule:nonzero;stroke:none"
         d="m 1215.39,91.4609 c -4.55,-3.582 -7.52,-8.3711 -8.92,-14.3906 -0.84,-2.9414 -1.41,-7.6992 -1.68,-14.289 0,-0.5508 0.27,-0.8399 0.84,-0.8399 h 54.38 c 0.56,0 0.84,0.2891 0.84,0.8399 -0.28,6.3085 -0.7,10.789 -1.26,13.4492 -1.54,6.3008 -4.64,11.3008 -9.34,15.0078 -4.69,3.7109 -10.61,5.5703 -17.75,5.5703 -6.85,0 -12.56,-1.7891 -17.11,-5.3477 z m 60.17,-33.289 v -6.7227 c 0,-1.3984 -0.7,-2.0976 -2.1,-2.0976 h -67.83 c -0.57,0 -0.84,-0.293 -0.84,-0.8399 0.27,-7.7031 0.69,-12.6719 1.26,-14.9219 1.53,-6.289 4.82,-11.2578 9.87,-14.8984 5.04,-3.6406 11.48,-5.4726 19.32,-5.4726 5.88,0 11.05,1.3398 15.54,4 4.48,2.6523 7.97,6.4296 10.49,11.3398 0.84,1.2617 1.83,1.543 2.94,0.8398 l 8.2,-4.8281 c 1.12,-0.6992 1.39,-1.6797 0.84,-2.9414 -3.5,-6.7305 -8.75,-12.00781 -15.76,-15.85937 C 1250.49,1.92969 1242.45,0 1233.34,0 c -9.94,0.140625 -18.27,2.51953 -24.99,7.14063 -6.71,4.62107 -11.54,11.05077 -14.48,19.32027 -2.52,6.7188 -3.78,16.3789 -3.78,28.9805 0,5.8789 0.1,10.668 0.31,14.3906 0.21,3.6993 0.74,7.0274 1.58,9.9688 2.38,9.0976 7.17,16.3789 14.38,21.8402 7.21,5.461 15.93,8.191 26.14,8.191 12.75,0 22.54,-3.23 29.41,-9.66 6.85,-6.4415 11.13,-15.5431 12.81,-27.3009 0.56,-3.9219 0.84,-8.832 0.84,-14.6992" /><path
         id="path74"
         style="fill:#263873;fill-opacity:1;fill-rule:nonzero;stroke:none"
         d="m 1376.04,99.75 c 6.65,-6.5781 9.98,-15.3984 9.98,-26.4609 V 3.98828 c 0,-1.39844 -0.7,-2.09765 -2.1,-2.09765 h -10.71 c -1.41,0 -2.1,0.69921 -2.1,2.09765 V 70.3516 c 0,7.6992 -2.35,14 -7.04,18.8984 -4.69,4.8984 -10.75,7.3516 -18.17,7.3516 -7.69,0 -13.92,-2.3828 -18.69,-7.1524 -4.75,-4.75 -7.14,-10.9804 -7.14,-18.6797 V 3.98828 c 0,-1.39844 -0.7,-2.09765 -2.1,-2.09765 h -10.7 c -1.41,0 -2.1,0.69921 -2.1,2.09765 V 106.051 c 0,1.39 0.69,2.097 2.1,2.097 h 10.7 c 1.4,0 2.1,-0.707 2.1,-2.097 v -9.0315 c 0,-0.2812 0.11,-0.5 0.32,-0.6289 0.21,-0.1406 0.39,-0.0703 0.52,0.211 6.16,8.6684 15.62,13.0194 28.35,13.0194 11.2,0 20.13,-3.293 26.78,-9.871" /><path
         id="path76"
         style="fill:#73ca55;fill-opacity:1;fill-rule:nonzero;stroke:none"
         d="m 1174.97,1137.04 c -19.5,0 -35.31,15.81 -35.31,35.31 0,19.5 15.81,35.3 35.31,35.3 19.5,0 35.31,-15.8 35.31,-35.3 0,-19.5 -15.81,-35.31 -35.31,-35.31 z m 0,-113.76 c -19.5,0 -35.31,15.81 -35.31,35.31 0,19.5 15.81,35.3 35.31,35.3 19.5,0 35.31,-15.8 35.31,-35.3 0,-19.5 -15.81,-35.31 -35.31,-35.31 z m 0,-113.76 c -19.5,0 -35.31,15.808 -35.31,35.304 0,19.496 15.81,35.305 35.31,35.305 19.5,0 35.31,-15.809 35.31,-35.305 0,-19.496 -15.81,-35.304 -35.31,-35.304 z m 181.75,169.24 c -9.01,229.34 -192.95,417.49 -422.056,431.33 -152.547,9.21 -289.836,-57.64 -377.793,-166.12 -9.351,-11.54 -25.789,-13.72 -38.144,-5.47 -60.528,40.38 -134.95,61.55 -214.622,54.64 C 141.891,1379.06 11.8984,1246.48 0.800781,1084.04 -12.5156,889.043 141.715,726.734 333.848,726.734 c 68.398,0 131.949,20.625 184.879,55.93 12.363,8.246 28.8,6.047 38.164,-5.496 82.558,-101.805 208.558,-166.934 349.843,-166.934 254.756,0 460.096,211.524 449.986,468.526" /><path
         id="path78"
         style="fill:#ffffff;fill-opacity:1;fill-rule:nonzero;stroke:none"
         d="m 249.227,914.609 -80.352,292.461 -0.434,1.73 c 0,2.59 1.582,3.89 4.758,3.89 h 65.664 c 2.875,0 4.75,-1.44 5.614,-4.32 l 37.582,-157.25 c 0.285,-1.15 0.718,-1.73 1.296,-1.73 0.575,0 1.004,0.58 1.297,1.73 l 33.696,156.82 c 0.574,3.17 2.441,4.75 5.617,4.75 h 60.047 c 2.879,0 4.754,-1.44 5.617,-4.32 l 37.582,-157.25 c 0.285,-1.15 0.719,-1.73 1.301,-1.73 0.57,0 1.004,0.58 1.293,1.73 l 34.988,156.82 c 0.578,3.17 2.449,4.75 5.617,4.75 h 63.942 c 4.027,0 5.613,-1.88 4.75,-5.62 L 466.094,914.609 c -0.864,-2.882 -2.887,-4.32 -6.051,-4.32 h -61.777 c -3.168,0 -5.039,1.578 -5.614,4.75 l -37.586,166.751 c -0.285,1.15 -0.722,1.73 -1.293,1.73 -0.582,0 -1.015,-0.58 -1.296,-1.73 l -33.7,-166.751 c -0.578,-3.172 -2.449,-4.75 -5.613,-4.75 h -57.887 c -3.172,0 -5.183,1.438 -6.05,4.32" /><path
         id="path80"
         style="fill:#263873;fill-opacity:1;fill-rule:nonzero;stroke:none"
         d="m 609.73,915.691 c -13.679,5.325 -24.265,12.668 -31.753,22.032 -7.489,9.351 -11.231,19.797 -11.231,31.316 v 3.891 c 0,1.437 0.5,2.656 1.516,3.672 1.004,1.007 2.226,1.511 3.672,1.511 h 38.011 c 1.442,0 2.66,-0.504 3.672,-1.511 1.004,-1.016 1.516,-2.235 1.516,-3.672 v -0.864 c 0,-7.203 3.953,-13.464 11.879,-18.793 7.918,-5.332 17.929,-7.996 30.023,-7.996 11.516,0 20.879,2.379 28.082,7.129 7.192,4.754 10.797,10.731 10.797,17.934 0,6.621 -2.957,11.586 -8.855,14.898 -5.907,3.313 -15.481,6.844 -28.731,10.586 l -16.414,5.186 c -14.687,4.32 -27.074,8.92 -37.148,13.83 -10.09,4.89 -18.578,11.58 -25.489,20.08 -6.914,8.49 -10.371,19.37 -10.371,32.62 0,20.15 7.918,36.21 23.758,48.16 15.836,11.95 36.727,17.93 62.645,17.93 17.562,0 32.972,-2.81 46.222,-8.42 13.242,-5.62 23.469,-13.39 30.672,-23.33 7.195,-9.93 10.801,-21.24 10.801,-33.91 0,-1.45 -0.508,-2.67 -1.516,-3.67 -1.011,-1.02 -2.23,-1.51 -3.672,-1.51 h -36.718 c -1.446,0 -2.664,0.49 -3.672,1.51 -1.012,1 -1.512,2.22 -1.512,3.67 0,7.49 -3.672,13.75 -11.016,18.79 -7.343,5.04 -17.355,7.56 -30.019,7.56 -11.238,0 -20.383,-2.09 -27.438,-6.26 -7.062,-4.18 -10.582,-10.01 -10.582,-17.5 0,-6.91 3.379,-12.17 10.153,-15.77 6.761,-3.6 18.07,-7.56 33.91,-11.88 l 9.508,-2.59 c 15.258,-4.61 28.074,-9.29 38.445,-14.04 10.367,-4.75 19.152,-11.38 26.355,-19.87 7.192,-8.5 10.793,-19.515 10.793,-33.051 0,-20.453 -8.066,-36.504 -24.187,-48.168 -16.133,-11.66 -37.582,-17.496 -64.371,-17.496 -18.145,0 -34.059,2.664 -47.735,7.996" /><path
         id="path82"
         style="fill:#263873;fill-opacity:1;fill-rule:nonzero;stroke:none"
         d="m 789.871,911.805 c -1.008,1.004 -1.512,2.222 -1.512,3.672 v 292.033 c 0,1.43 0.504,2.66 1.512,3.67 1.008,1 2.227,1.51 3.672,1.51 h 39.746 c 1.438,0 2.656,-0.51 3.672,-1.51 1.008,-1.01 1.512,-2.24 1.512,-3.67 v -155.96 c 0,-0.86 0.281,-1.44 0.863,-1.73 0.574,-0.28 1.148,0 1.727,0.87 l 69.988,77.33 c 2.012,2.01 4.168,3.02 6.476,3.02 h 45.789 c 2.879,0 4.325,-1.01 4.325,-3.02 0,-0.87 -0.438,-2.02 -1.297,-3.46 L 911.48,1058.9 c -0.867,-0.87 -1.011,-1.88 -0.429,-3.02 l 64.804,-139.54 c 0.567,-1.156 0.86,-2.024 0.86,-2.594 0,-2.308 -1.582,-3.457 -4.746,-3.457 h -41.91 c -2.887,0 -4.903,1.293 -6.051,3.887 l -47.09,109.734 c -0.289,0.57 -0.797,0.93 -1.508,1.08 -0.722,0.14 -1.23,-0.08 -1.515,-0.65 l -34.559,-39.75 c -0.582,-1.152 -0.863,-2.156 -0.863,-3.02 v -66.093 c 0,-1.45 -0.504,-2.668 -1.512,-3.672 -1.016,-1.02 -2.234,-1.516 -3.672,-1.516 h -39.746 c -1.445,0 -2.664,0.496 -3.672,1.516" /></g></g></svg>